<svg xmlns="http://www.w3.org/2000/svg" xmlns:xlink="http://www.w3.org/1999/xlink" width="313.476" height="352.139" viewBox="0 0 313.476 352.139">
  <defs>
    <clipPath id="clip-path">
      <rect id="Rectangle_405" data-name="Rectangle 405" width="313.476" height="352.139" transform="translate(0 0)" fill="#f3f3f3"/>
    </clipPath>
  </defs>
  <g id="Mask_Group_40" data-name="Mask Group 40" transform="translate(0 0)" clip-path="url(#clip-path)">
    <g id="_x31_-Color_Magenta_00000173149901489903638690000013644820134866672774_" transform="translate(-940.501 -0.028)">
      <g id="Group_1327" data-name="Group 1327">
        <path id="Path_4396" data-name="Path 4396" d="M77.687,26.14a19.284,19.284,0,0,0-19.28,19.321,13.042,13.042,0,1,1-26.085,0A19.284,19.284,0,0,0,13.042,26.14,12.986,12.986,0,0,1,0,13.07a13.042,13.042,0,1,1,26.085,0,19.28,19.28,0,1,0,38.56,0,13.042,13.042,0,1,1,26.085,0A12.986,12.986,0,0,1,77.687,26.14Z" transform="translate(872.702 226.735)" fill="#f3f3f3"/>
        <path id="Path_4397" data-name="Path 4397" d="M13.042,0A12.986,12.986,0,0,1,26.085,13.07a19.284,19.284,0,0,0,19.28,19.321,12.986,12.986,0,0,1,13.042,13.07,19.284,19.284,0,0,0,19.28,19.321,12.986,12.986,0,0,1,13.042,13.07,19.284,19.284,0,0,0,19.28,19.321,12.986,12.986,0,0,1,13.042,13.07,19.284,19.284,0,0,0,19.28,19.321,12.986,12.986,0,0,1,13.042,13.07,19.284,19.284,0,0,0,19.28,19.321,12.986,12.986,0,0,1,13.042,13.07,19.284,19.284,0,0,0,19.28,19.321,12.986,12.986,0,0,1,13.042,13.07,19.284,19.284,0,0,0,19.28,19.321,12.986,12.986,0,0,1,13.042,13.07,19.284,19.284,0,0,0,19.28,19.321,13.07,13.07,0,1,1-13.042,13.07,19.284,19.284,0,0,0-19.28-19.321,12.986,12.986,0,0,1-13.042-13.07,19.284,19.284,0,0,0-19.28-19.321,12.986,12.986,0,0,1-13.042-13.07,19.284,19.284,0,0,0-19.28-19.321,12.986,12.986,0,0,1-13.042-13.07,19.284,19.284,0,0,0-19.28-19.321,12.986,12.986,0,0,1-13.042-13.07,19.284,19.284,0,0,0-19.28-19.321,12.986,12.986,0,0,1-13.042-13.07,19.284,19.284,0,0,0-19.28-19.321,12.986,12.986,0,0,1-13.042-13.07,19.284,19.284,0,0,0-19.28-19.321,12.986,12.986,0,0,1-13.042-13.07A19.284,19.284,0,0,0,13.042,26.14a13.07,13.07,0,0,1,0-26.14Z" transform="translate(581.801 0)" fill="#f3f3f3"/>
        <ellipse id="Ellipse_563" data-name="Ellipse 563" cx="12.735" cy="13.137" rx="12.735" ry="13.137" transform="translate(776.057 259.011)" fill="#f3f3f3"/>
        <path id="Path_4398" data-name="Path 4398" d="M13.042,0A12.986,12.986,0,0,1,26.085,13.07a19.284,19.284,0,0,0,19.28,19.321,12.986,12.986,0,0,1,13.042,13.07,19.284,19.284,0,0,0,19.28,19.321,13.07,13.07,0,1,1-13.042,13.07,19.284,19.284,0,0,0-19.28-19.321,12.986,12.986,0,0,1-13.042-13.07A19.284,19.284,0,0,0,13.042,26.14a13.07,13.07,0,0,1,0-26.14Z" transform="translate(646.446 194.345)" fill="#f3f3f3"/>
        <path id="Path_4399" data-name="Path 4399" d="M77.687,26.14a19.284,19.284,0,0,0-19.28,19.321,13.042,13.042,0,1,1-26.085,0A19.284,19.284,0,0,0,13.042,26.14,12.986,12.986,0,0,1,0,13.07a13.042,13.042,0,1,1,26.085,0,19.28,19.28,0,1,0,38.56,0,13.042,13.042,0,1,1,26.085,0A12.986,12.986,0,0,1,77.687,26.14Z" transform="translate(614.124 226.735)" fill="#f3f3f3"/>
        <path id="Path_4400" data-name="Path 4400" d="M77.687,26.14a19.284,19.284,0,0,0-19.28,19.321,13.042,13.042,0,1,1-26.085,0A19.284,19.284,0,0,0,13.042,26.14,12.986,12.986,0,0,1,0,13.07a13.042,13.042,0,1,1,26.085,0,19.28,19.28,0,1,0,38.56,0,13.042,13.042,0,1,1,26.085,0A12.986,12.986,0,0,1,77.687,26.14Z" transform="translate(549.479 226.735)" fill="#f3f3f3"/>
        <path id="Path_4401" data-name="Path 4401" d="M77.687,26.14a19.284,19.284,0,0,0-19.28,19.321,13.042,13.042,0,1,1-26.085,0A19.284,19.284,0,0,0,13.042,26.14,12.986,12.986,0,0,1,0,13.07a13.042,13.042,0,1,1,26.085,0,19.28,19.28,0,1,0,38.56,0,13.042,13.042,0,1,1,26.085,0A12.986,12.986,0,0,1,77.687,26.14Z" transform="translate(484.835 226.735)" fill="#f3f3f3"/>
        <path id="Path_4402" data-name="Path 4402" d="M26.085,45.461A19.284,19.284,0,0,1,45.365,26.14,12.986,12.986,0,0,0,58.407,13.07a13.042,13.042,0,1,0-26.085,0,19.284,19.284,0,0,1-19.28,19.321,13.07,13.07,0,1,0,13.042,13.07Z" transform="translate(452.512 226.735)" fill="#f3f3f3"/>
        <path id="Path_4403" data-name="Path 4403" d="M77.687,26.14a19.284,19.284,0,0,0-19.28,19.321,13.042,13.042,0,1,1-26.085,0A19.284,19.284,0,0,0,13.042,26.14,12.986,12.986,0,0,1,0,13.07a13.042,13.042,0,1,1,26.085,0,19.28,19.28,0,1,0,38.56,0,13.042,13.042,0,1,1,26.085,0A12.986,12.986,0,0,1,77.687,26.14Z" transform="translate(420.19 226.735)" fill="#f3f3f3"/>
        <path id="Path_4404" data-name="Path 4404" d="M77.687,26.14a19.284,19.284,0,0,0-19.28,19.321,13.042,13.042,0,1,1-26.085,0A19.284,19.284,0,0,0,13.042,26.14,12.986,12.986,0,0,1,0,13.07a13.042,13.042,0,1,1,26.085,0,19.28,19.28,0,1,0,38.56,0,13.042,13.042,0,1,1,26.085,0A12.986,12.986,0,0,1,77.687,26.14Z" transform="translate(355.545 226.735)" fill="#f3f3f3"/>
        <path id="Path_4405" data-name="Path 4405" d="M26.085,45.461A19.284,19.284,0,0,1,45.365,26.14,12.986,12.986,0,0,0,58.407,13.07a13.042,13.042,0,1,0-26.085,0,19.284,19.284,0,0,1-19.28,19.321,13.07,13.07,0,1,0,13.042,13.07Z" transform="translate(323.223 226.735)" fill="#f3f3f3"/>
        <path id="Path_4406" data-name="Path 4406" d="M77.687,26.14a19.284,19.284,0,0,0-19.28,19.321,13.042,13.042,0,1,1-26.085,0A19.284,19.284,0,0,0,13.042,26.14,12.986,12.986,0,0,1,0,13.07a13.042,13.042,0,1,1,26.085,0,19.28,19.28,0,1,0,38.56,0,13.042,13.042,0,1,1,26.085,0A12.986,12.986,0,0,1,77.687,26.14Z" transform="translate(290.901 226.735)" fill="#f3f3f3"/>
        <path id="Path_4407" data-name="Path 4407" d="M77.687,26.14a19.284,19.284,0,0,0-19.28,19.321,13.042,13.042,0,1,1-26.085,0A19.284,19.284,0,0,0,13.042,26.14,12.986,12.986,0,0,1,0,13.07a13.042,13.042,0,1,1,26.085,0,19.28,19.28,0,1,0,38.56,0,13.042,13.042,0,1,1,26.085,0A12.986,12.986,0,0,1,77.687,26.14Z" transform="translate(226.256 226.735)" fill="#f3f3f3"/>
        <path id="Path_4408" data-name="Path 4408" d="M77.687,26.14a19.284,19.284,0,0,0-19.28,19.321,13.042,13.042,0,1,1-26.085,0A19.284,19.284,0,0,0,13.042,26.14,12.986,12.986,0,0,1,0,13.07a13.042,13.042,0,1,1,26.085,0,19.28,19.28,0,1,0,38.56,0,13.042,13.042,0,1,1,26.085,0A12.986,12.986,0,0,1,77.687,26.14Z" transform="translate(161.612 226.735)" fill="#f3f3f3"/>
        <path id="Path_4409" data-name="Path 4409" d="M77.687,26.14a19.284,19.284,0,0,0-19.28,19.321,13.042,13.042,0,1,1-26.085,0A19.284,19.284,0,0,0,13.042,26.14,12.986,12.986,0,0,1,0,13.07a13.042,13.042,0,1,1,26.085,0,19.28,19.28,0,1,0,38.56,0,13.042,13.042,0,1,1,26.085,0A12.986,12.986,0,0,1,77.687,26.14Z" transform="translate(96.967 226.735)" fill="#f3f3f3"/>
        <path id="Path_4410" data-name="Path 4410" d="M77.687,26.14a19.284,19.284,0,0,0-19.28,19.321,13.042,13.042,0,1,1-26.085,0A19.284,19.284,0,0,0,13.042,26.14,12.986,12.986,0,0,1,0,13.07a13.042,13.042,0,1,1,26.085,0,19.28,19.28,0,1,0,38.56,0,13.042,13.042,0,1,1,26.085,0A12.986,12.986,0,0,1,77.687,26.14Z" transform="translate(32.322 226.735)" fill="#f3f3f3"/>
        <path id="Path_4411" data-name="Path 4411" d="M26.085,45.461A19.284,19.284,0,0,1,45.364,26.14,12.986,12.986,0,0,0,58.407,13.07a13.042,13.042,0,1,0-26.085,0,19.284,19.284,0,0,1-19.28,19.321,13.07,13.07,0,1,0,13.042,13.07Z" transform="translate(0 226.735)" fill="#f3f3f3"/>
        <path id="Path_4412" data-name="Path 4412" d="M26.085,45.461A19.284,19.284,0,0,1,45.365,26.14,12.986,12.986,0,0,0,58.407,13.07a13.042,13.042,0,1,0-26.085,0,19.284,19.284,0,0,1-19.28,19.321,13.07,13.07,0,1,0,13.043,13.07Z" transform="translate(32.322 194.345)" fill="#f3f3f3"/>
        <path id="Path_4413" data-name="Path 4413" d="M32.322,45.461A19.284,19.284,0,0,0,13.042,26.14,12.986,12.986,0,0,1,0,13.07a13.042,13.042,0,1,1,26.085,0,19.284,19.284,0,0,0,19.28,19.321,13.07,13.07,0,1,1-13.042,13.07Z" transform="translate(0 194.345)" fill="#f3f3f3"/>
        <path id="Path_4414" data-name="Path 4414" d="M77.687,0A12.986,12.986,0,0,0,64.644,13.07a19.284,19.284,0,0,1-19.28,19.321,12.986,12.986,0,0,0-13.042,13.07,19.284,19.284,0,0,1-19.28,19.321,13.07,13.07,0,1,0,13.042,13.07,19.284,19.284,0,0,1,19.28-19.321,12.986,12.986,0,0,0,13.043-13.07A19.284,19.284,0,0,1,77.687,26.14,12.986,12.986,0,0,0,90.729,13.07,12.986,12.986,0,0,0,77.687,0Z" transform="translate(0 129.563)" fill="#f3f3f3"/>
        <path id="Path_4415" data-name="Path 4415" d="M32.322,45.461A19.284,19.284,0,0,0,13.042,26.14,12.986,12.986,0,0,1,0,13.07a13.042,13.042,0,1,1,26.085,0,19.284,19.284,0,0,0,19.28,19.321,13.07,13.07,0,1,1-13.042,13.07Z" transform="translate(0 129.563)" fill="#f3f3f3"/>
        <path id="Path_4416" data-name="Path 4416" d="M13.042,0A12.986,12.986,0,0,1,26.085,13.07a19.284,19.284,0,0,0,19.28,19.321,12.986,12.986,0,0,1,13.042,13.07,19.284,19.284,0,0,0,19.28,19.321,13.07,13.07,0,1,1-13.042,13.07,19.284,19.284,0,0,0-19.28-19.321,12.986,12.986,0,0,1-13.042-13.07A19.284,19.284,0,0,0,13.042,26.14a13.07,13.07,0,0,1,0-26.14Z" transform="translate(32.322 161.954)" fill="#f3f3f3"/>
        <path id="Path_4417" data-name="Path 4417" d="M77.687,0A12.986,12.986,0,0,0,64.644,13.07a19.284,19.284,0,0,1-19.28,19.321,12.986,12.986,0,0,0-13.042,13.07,19.284,19.284,0,0,1-19.28,19.321,13.07,13.07,0,1,0,13.042,13.07,19.284,19.284,0,0,1,19.28-19.321,12.986,12.986,0,0,0,13.043-13.07A19.284,19.284,0,0,1,77.687,26.14,12.986,12.986,0,0,0,90.729,13.07,12.986,12.986,0,0,0,77.687,0Z" transform="translate(0 64.782)" fill="#f3f3f3"/>
        <path id="Path_4418" data-name="Path 4418" d="M32.322,45.461A19.284,19.284,0,0,0,13.042,26.14,12.986,12.986,0,0,1,0,13.07a13.042,13.042,0,1,1,26.085,0,19.284,19.284,0,0,0,19.28,19.321,13.07,13.07,0,1,1-13.042,13.07Z" transform="translate(0 64.782)" fill="#f3f3f3"/>
        <path id="Path_4419" data-name="Path 4419" d="M77.687,0A12.986,12.986,0,0,0,64.644,13.07a19.284,19.284,0,0,1-19.28,19.321,12.986,12.986,0,0,0-13.042,13.07,19.284,19.284,0,0,1-19.28,19.321,13.07,13.07,0,1,0,13.042,13.07,19.284,19.284,0,0,1,19.28-19.321,12.986,12.986,0,0,0,13.043-13.07A19.284,19.284,0,0,1,77.687,26.14,12.986,12.986,0,0,0,90.729,13.07,12.986,12.986,0,0,0,77.687,0Z" transform="translate(0 0)" fill="#f3f3f3"/>
        <path id="Path_4420" data-name="Path 4420" d="M13.042,0A12.986,12.986,0,0,1,26.085,13.07a19.284,19.284,0,0,0,19.28,19.321,12.986,12.986,0,0,1,13.043,13.07,19.284,19.284,0,0,0,19.28,19.321,13.07,13.07,0,1,1-13.042,13.07,19.284,19.284,0,0,0-19.28-19.321,12.986,12.986,0,0,1-13.042-13.07A19.284,19.284,0,0,0,13.042,26.14a13.07,13.07,0,0,1,0-26.14Z" transform="translate(0 0)" fill="#f3f3f3"/>
        <path id="Path_4421" data-name="Path 4421" d="M13.042,0A12.986,12.986,0,0,1,26.085,13.07a19.284,19.284,0,0,0,19.28,19.321,12.986,12.986,0,0,1,13.042,13.07,19.284,19.284,0,0,0,19.28,19.321,13.07,13.07,0,1,1-13.042,13.07,19.284,19.284,0,0,0-19.28-19.321,12.986,12.986,0,0,1-13.042-13.07A19.284,19.284,0,0,0,13.042,26.14a13.07,13.07,0,0,1,0-26.14Z" transform="translate(64.645 0)" fill="#f3f3f3"/>
        <path id="Path_4422" data-name="Path 4422" d="M13.042,0A12.986,12.986,0,0,1,26.085,13.07a19.284,19.284,0,0,0,19.28,19.321,12.986,12.986,0,0,1,13.042,13.07,19.284,19.284,0,0,0,19.28,19.321,13.07,13.07,0,1,1-13.042,13.07,19.284,19.284,0,0,0-19.28-19.321,12.986,12.986,0,0,1-13.042-13.07A19.284,19.284,0,0,0,13.042,26.14a13.07,13.07,0,0,1,0-26.14Z" transform="translate(32.322 97.172)" fill="#f3f3f3"/>
        <path id="Path_4423" data-name="Path 4423" d="M77.687,0A12.986,12.986,0,0,0,64.645,13.07a19.284,19.284,0,0,1-19.28,19.321,12.986,12.986,0,0,0-13.042,13.07,19.284,19.284,0,0,1-19.28,19.321,13.07,13.07,0,1,0,13.042,13.07,19.284,19.284,0,0,1,19.28-19.321,12.986,12.986,0,0,0,13.042-13.07A19.284,19.284,0,0,1,77.687,26.14,12.986,12.986,0,0,0,90.729,13.07,12.986,12.986,0,0,0,77.687,0Z" transform="translate(64.645 129.563)" fill="#f3f3f3"/>
        <path id="Path_4424" data-name="Path 4424" d="M77.687,0A12.986,12.986,0,0,0,64.645,13.07a19.284,19.284,0,0,1-19.28,19.321,12.986,12.986,0,0,0-13.042,13.07,19.284,19.284,0,0,1-19.28,19.321,13.07,13.07,0,1,0,13.042,13.07,19.284,19.284,0,0,1,19.28-19.321,12.986,12.986,0,0,0,13.042-13.07A19.284,19.284,0,0,1,77.687,26.14,12.986,12.986,0,0,0,90.729,13.07,12.986,12.986,0,0,0,77.687,0Z" transform="translate(64.645 64.782)" fill="#f3f3f3"/>
        <path id="Path_4425" data-name="Path 4425" d="M77.687,0A12.986,12.986,0,0,0,64.645,13.07a19.284,19.284,0,0,1-19.28,19.321,12.986,12.986,0,0,0-13.042,13.07,19.284,19.284,0,0,1-19.28,19.321,13.07,13.07,0,1,0,13.042,13.07,19.284,19.284,0,0,1,19.28-19.321,12.986,12.986,0,0,0,13.042-13.07A19.284,19.284,0,0,1,77.687,26.14,12.986,12.986,0,0,0,90.729,13.07,12.986,12.986,0,0,0,77.687,0Z" transform="translate(64.645 0)" fill="#f3f3f3"/>
        <path id="Path_4426" data-name="Path 4426" d="M32.322,45.461A19.284,19.284,0,0,0,13.042,26.14,12.986,12.986,0,0,1,0,13.07a13.042,13.042,0,1,1,26.085,0,19.284,19.284,0,0,0,19.28,19.321,13.07,13.07,0,1,1-13.042,13.07Z" transform="translate(64.645 64.782)" fill="#f3f3f3"/>
        <path id="Path_4427" data-name="Path 4427" d="M13.042,0A12.986,12.986,0,0,1,26.085,13.07a19.284,19.284,0,0,0,19.28,19.321,12.986,12.986,0,0,1,13.042,13.07,19.284,19.284,0,0,0,19.28,19.321,13.07,13.07,0,1,1-13.042,13.07,19.284,19.284,0,0,0-19.28-19.321,12.986,12.986,0,0,1-13.042-13.07A19.284,19.284,0,0,0,13.042,26.14a13.07,13.07,0,0,1,0-26.14Z" transform="translate(96.967 97.172)" fill="#f3f3f3"/>
        <path id="Path_4428" data-name="Path 4428" d="M13.042,0A12.986,12.986,0,0,1,26.085,13.07a19.284,19.284,0,0,0,19.28,19.321,12.986,12.986,0,0,1,13.042,13.07,19.284,19.284,0,0,0,19.28,19.321,13.07,13.07,0,1,1-13.042,13.07,19.284,19.284,0,0,0-19.28-19.321,12.986,12.986,0,0,1-13.042-13.07A19.284,19.284,0,0,0,13.042,26.14a13.07,13.07,0,0,1,0-26.14Z" transform="translate(96.967 161.954)" fill="#f3f3f3"/>
        <path id="Path_4429" data-name="Path 4429" d="M26.085,45.461A19.284,19.284,0,0,1,45.365,26.14,12.986,12.986,0,0,0,58.407,13.07a13.042,13.042,0,1,0-26.085,0,19.284,19.284,0,0,1-19.28,19.321,13.07,13.07,0,1,0,13.042,13.07Z" transform="translate(96.967 194.345)" fill="#f3f3f3"/>
        <path id="Path_4430" data-name="Path 4430" d="M26.085,45.461A19.284,19.284,0,0,1,45.365,26.14,12.986,12.986,0,0,0,58.407,13.07a13.042,13.042,0,1,0-26.085,0,19.284,19.284,0,0,1-19.28,19.321,13.07,13.07,0,1,0,13.042,13.07Z" transform="translate(161.611 194.345)" fill="#f3f3f3"/>
        <path id="Path_4431" data-name="Path 4431" d="M77.687,0A12.986,12.986,0,0,0,64.645,13.07a19.284,19.284,0,0,1-19.28,19.321,12.986,12.986,0,0,0-13.042,13.07,19.284,19.284,0,0,1-19.28,19.321,13.07,13.07,0,1,0,13.042,13.07,19.284,19.284,0,0,1,19.28-19.321,12.986,12.986,0,0,0,13.042-13.07A19.284,19.284,0,0,1,77.687,26.14,12.986,12.986,0,0,0,90.729,13.07,12.986,12.986,0,0,0,77.687,0Z" transform="translate(129.289 129.563)" fill="#f3f3f3"/>
        <path id="Path_4432" data-name="Path 4432" d="M77.687,0A12.986,12.986,0,0,0,64.645,13.07a19.284,19.284,0,0,1-19.28,19.321,12.986,12.986,0,0,0-13.042,13.07,19.284,19.284,0,0,1-19.28,19.321,13.07,13.07,0,1,0,13.042,13.07,19.284,19.284,0,0,1,19.28-19.321,12.986,12.986,0,0,0,13.042-13.07A19.284,19.284,0,0,1,77.687,26.14,12.986,12.986,0,0,0,90.729,13.07,12.986,12.986,0,0,0,77.687,0Z" transform="translate(129.289 64.782)" fill="#f3f3f3"/>
        <path id="Path_4433" data-name="Path 4433" d="M77.687,0A12.986,12.986,0,0,0,64.645,13.07a19.284,19.284,0,0,1-19.28,19.321,12.986,12.986,0,0,0-13.042,13.07,19.284,19.284,0,0,1-19.28,19.321,13.07,13.07,0,1,0,13.042,13.07,19.284,19.284,0,0,1,19.28-19.321,12.986,12.986,0,0,0,13.042-13.07A19.284,19.284,0,0,1,77.687,26.14,12.986,12.986,0,0,0,90.729,13.07,12.986,12.986,0,0,0,77.687,0Z" transform="translate(129.289 0)" fill="#f3f3f3"/>
        <path id="Path_4434" data-name="Path 4434" d="M32.322,45.461A19.284,19.284,0,0,0,13.042,26.14,12.986,12.986,0,0,1,0,13.07a13.042,13.042,0,1,1,26.085,0,19.284,19.284,0,0,0,19.28,19.321,13.07,13.07,0,1,1-13.042,13.07Z" transform="translate(129.289 64.782)" fill="#f3f3f3"/>
        <path id="Path_4435" data-name="Path 4435" d="M13.042,0A12.986,12.986,0,0,1,26.085,13.07a19.284,19.284,0,0,0,19.28,19.321,12.986,12.986,0,0,1,13.042,13.07,19.284,19.284,0,0,0,19.28,19.321,13.07,13.07,0,1,1-13.042,13.07,19.284,19.284,0,0,0-19.28-19.321,12.986,12.986,0,0,1-13.042-13.07A19.284,19.284,0,0,0,13.042,26.14a13.07,13.07,0,0,1,0-26.14Z" transform="translate(129.289 0)" fill="#f3f3f3"/>
        <path id="Path_4436" data-name="Path 4436" d="M13.042,0A12.986,12.986,0,0,1,26.085,13.07a19.284,19.284,0,0,0,19.28,19.321,12.986,12.986,0,0,1,13.042,13.07,19.284,19.284,0,0,0,19.28,19.321,13.07,13.07,0,1,1-13.042,13.07,19.284,19.284,0,0,0-19.28-19.321,12.986,12.986,0,0,1-13.042-13.07A19.284,19.284,0,0,0,13.042,26.14a13.07,13.07,0,0,1,0-26.14Z" transform="translate(161.612 97.172)" fill="#f3f3f3"/>
        <path id="Path_4437" data-name="Path 4437" d="M13.042,0A12.986,12.986,0,0,1,26.085,13.07a19.284,19.284,0,0,0,19.28,19.321,12.986,12.986,0,0,1,13.042,13.07,19.284,19.284,0,0,0,19.28,19.321,13.07,13.07,0,1,1-13.042,13.07,19.284,19.284,0,0,0-19.28-19.321,12.986,12.986,0,0,1-13.042-13.07A19.284,19.284,0,0,0,13.042,26.14a13.07,13.07,0,0,1,0-26.14Z" transform="translate(161.612 161.954)" fill="#f3f3f3"/>
        <path id="Path_4438" data-name="Path 4438" d="M77.687,0A12.986,12.986,0,0,0,64.644,13.07a19.284,19.284,0,0,1-19.28,19.321,12.986,12.986,0,0,0-13.042,13.07,19.284,19.284,0,0,1-19.28,19.321,13.07,13.07,0,1,0,13.042,13.07,19.284,19.284,0,0,1,19.28-19.321,12.986,12.986,0,0,0,13.042-13.07A19.284,19.284,0,0,1,77.687,26.14,12.986,12.986,0,0,0,90.729,13.07,12.986,12.986,0,0,0,77.687,0Z" transform="translate(193.934 64.782)" fill="#f3f3f3"/>
        <path id="Path_4439" data-name="Path 4439" d="M77.687,0A12.986,12.986,0,0,0,64.644,13.07a19.284,19.284,0,0,1-19.28,19.321,12.986,12.986,0,0,0-13.042,13.07,19.284,19.284,0,0,1-19.28,19.321,13.07,13.07,0,1,0,13.042,13.07,19.284,19.284,0,0,1,19.28-19.321,12.986,12.986,0,0,0,13.042-13.07A19.284,19.284,0,0,1,77.687,26.14,12.986,12.986,0,0,0,90.729,13.07,12.986,12.986,0,0,0,77.687,0Z" transform="translate(193.934 0)" fill="#f3f3f3"/>
        <path id="Path_4440" data-name="Path 4440" d="M32.322,45.461A19.284,19.284,0,0,0,13.042,26.14,12.986,12.986,0,0,1,0,13.07a13.042,13.042,0,1,1,26.085,0,19.284,19.284,0,0,0,19.28,19.321,13.07,13.07,0,1,1-13.042,13.07Z" transform="translate(193.934 64.782)" fill="#f3f3f3"/>
        <path id="Path_4441" data-name="Path 4441" d="M13.042,0A12.986,12.986,0,0,1,26.085,13.07a19.284,19.284,0,0,0,19.28,19.321,12.986,12.986,0,0,1,13.042,13.07,19.284,19.284,0,0,0,19.28,19.321,13.07,13.07,0,1,1-13.042,13.07,19.284,19.284,0,0,0-19.28-19.321,12.986,12.986,0,0,1-13.042-13.07A19.284,19.284,0,0,0,13.042,26.14a13.07,13.07,0,0,1,0-26.14Z" transform="translate(193.934 0)" fill="#f3f3f3"/>
        <path id="Path_4442" data-name="Path 4442" d="M13.042,0A12.986,12.986,0,0,1,26.085,13.07a19.284,19.284,0,0,0,19.28,19.321,12.986,12.986,0,0,1,13.042,13.07,19.284,19.284,0,0,0,19.28,19.321,13.07,13.07,0,1,1-13.042,13.07,19.284,19.284,0,0,0-19.28-19.321,12.986,12.986,0,0,1-13.042-13.07A19.284,19.284,0,0,0,13.042,26.14a13.07,13.07,0,0,1,0-26.14Z" transform="translate(258.578 0)" fill="#f3f3f3"/>
        <path id="Path_4443" data-name="Path 4443" d="M13.042,0A12.986,12.986,0,0,1,26.085,13.07a19.284,19.284,0,0,0,19.28,19.321,12.986,12.986,0,0,1,13.042,13.07,19.284,19.284,0,0,0,19.28,19.321,13.07,13.07,0,1,1-13.042,13.07,19.284,19.284,0,0,0-19.28-19.321,12.986,12.986,0,0,1-13.042-13.07A19.284,19.284,0,0,0,13.042,26.14a13.07,13.07,0,0,1,0-26.14Z" transform="translate(226.256 97.172)" fill="#f3f3f3"/>
        <path id="Path_4444" data-name="Path 4444" d="M77.687,0A12.986,12.986,0,0,0,64.644,13.07a19.284,19.284,0,0,1-19.28,19.321,12.986,12.986,0,0,0-13.042,13.07,19.284,19.284,0,0,1-19.28,19.321,13.07,13.07,0,1,0,13.042,13.07,19.284,19.284,0,0,1,19.28-19.321,12.986,12.986,0,0,0,13.042-13.07A19.284,19.284,0,0,1,77.687,26.14,12.986,12.986,0,0,0,90.729,13.07,12.986,12.986,0,0,0,77.687,0Z" transform="translate(193.934 129.563)" fill="#f3f3f3"/>
        <path id="Path_4445" data-name="Path 4445" d="M13.042,0A12.986,12.986,0,0,1,26.085,13.07a19.284,19.284,0,0,0,19.28,19.321,12.986,12.986,0,0,1,13.042,13.07,19.284,19.284,0,0,0,19.28,19.321,13.07,13.07,0,1,1-13.042,13.07,19.284,19.284,0,0,0-19.28-19.321,12.986,12.986,0,0,1-13.042-13.07A19.284,19.284,0,0,0,13.042,26.14a13.07,13.07,0,0,1,0-26.14Z" transform="translate(226.256 161.954)" fill="#f3f3f3"/>
        <path id="Path_4446" data-name="Path 4446" d="M26.085,45.461A19.284,19.284,0,0,1,45.365,26.14,12.986,12.986,0,0,0,58.407,13.07a13.042,13.042,0,1,0-26.085,0,19.284,19.284,0,0,1-19.28,19.321,13.07,13.07,0,1,0,13.042,13.07Z" transform="translate(226.256 194.345)" fill="#f3f3f3"/>
        <path id="Path_4447" data-name="Path 4447" d="M77.687,0A12.986,12.986,0,0,0,64.645,13.07a19.284,19.284,0,0,1-19.28,19.321,12.986,12.986,0,0,0-13.042,13.07,19.284,19.284,0,0,1-19.28,19.321,13.07,13.07,0,1,0,13.042,13.07,19.284,19.284,0,0,1,19.28-19.321,12.986,12.986,0,0,0,13.042-13.07A19.284,19.284,0,0,1,77.687,26.14,12.986,12.986,0,0,0,90.729,13.07,12.986,12.986,0,0,0,77.687,0Z" transform="translate(258.578 129.563)" fill="#f3f3f3"/>
        <path id="Path_4448" data-name="Path 4448" d="M26.085,45.461A19.284,19.284,0,0,1,45.365,26.14,12.986,12.986,0,0,0,58.407,13.07a13.042,13.042,0,1,0-26.085,0,19.284,19.284,0,0,1-19.28,19.321,13.07,13.07,0,1,0,13.042,13.07Z" transform="translate(290.901 194.345)" fill="#f3f3f3"/>
        <path id="Path_4449" data-name="Path 4449" d="M77.687,0A12.986,12.986,0,0,0,64.645,13.07a19.284,19.284,0,0,1-19.28,19.321,12.986,12.986,0,0,0-13.042,13.07,19.284,19.284,0,0,1-19.28,19.321,13.07,13.07,0,1,0,13.042,13.07,19.284,19.284,0,0,1,19.28-19.321,12.986,12.986,0,0,0,13.042-13.07A19.284,19.284,0,0,1,77.687,26.14,12.986,12.986,0,0,0,90.729,13.07,12.986,12.986,0,0,0,77.687,0Z" transform="translate(323.223 129.563)" fill="#f3f3f3"/>
        <path id="Path_4450" data-name="Path 4450" d="M13.042,0A12.986,12.986,0,0,1,26.085,13.07a19.284,19.284,0,0,0,19.28,19.321,12.986,12.986,0,0,1,13.042,13.07,19.284,19.284,0,0,0,19.28,19.321,13.07,13.07,0,1,1-13.042,13.07,19.284,19.284,0,0,0-19.28-19.321,12.986,12.986,0,0,1-13.042-13.07A19.284,19.284,0,0,0,13.042,26.14a13.07,13.07,0,0,1,0-26.14Z" transform="translate(290.901 161.954)" fill="#f3f3f3"/>
        <path id="Path_4451" data-name="Path 4451" d="M77.687,0A12.986,12.986,0,0,0,64.645,13.07a19.284,19.284,0,0,1-19.28,19.321,12.986,12.986,0,0,0-13.042,13.07,19.284,19.284,0,0,1-19.28,19.321,13.07,13.07,0,1,0,13.042,13.07,19.284,19.284,0,0,1,19.28-19.321,12.986,12.986,0,0,0,13.042-13.07A19.284,19.284,0,0,1,77.687,26.14,12.986,12.986,0,0,0,90.729,13.07,12.986,12.986,0,0,0,77.687,0Z" transform="translate(258.578 0)" fill="#f3f3f3"/>
        <path id="Path_4452" data-name="Path 4452" d="M13.042,0A12.986,12.986,0,0,1,26.085,13.07a19.284,19.284,0,0,0,19.28,19.321,12.986,12.986,0,0,1,13.042,13.07,19.284,19.284,0,0,0,19.28,19.321,13.07,13.07,0,1,1-13.042,13.07,19.284,19.284,0,0,0-19.28-19.321,12.986,12.986,0,0,1-13.042-13.07A19.284,19.284,0,0,0,13.042,26.14a13.07,13.07,0,0,1,0-26.14Z" transform="translate(258.578 64.782)" fill="#f3f3f3"/>
        <path id="Path_4453" data-name="Path 4453" d="M77.687,0A12.986,12.986,0,0,0,64.645,13.07a19.284,19.284,0,0,1-19.28,19.321,12.986,12.986,0,0,0-13.042,13.07,19.284,19.284,0,0,1-19.28,19.321,13.07,13.07,0,1,0,13.042,13.07,19.284,19.284,0,0,1,19.28-19.321,12.986,12.986,0,0,0,13.042-13.07A19.284,19.284,0,0,1,77.687,26.14,12.986,12.986,0,0,0,90.729,13.07,12.986,12.986,0,0,0,77.687,0Z" transform="translate(323.223 0)" fill="#f3f3f3"/>
        <path id="Path_4454" data-name="Path 4454" d="M32.322,45.461A19.284,19.284,0,0,0,13.042,26.14,12.986,12.986,0,0,1,0,13.07a13.042,13.042,0,1,1,26.085,0,19.284,19.284,0,0,0,19.28,19.321,13.07,13.07,0,1,1-13.042,13.07Z" transform="translate(355.545 32.391)" fill="#f3f3f3"/>
        <path id="Path_4455" data-name="Path 4455" d="M77.687,0A12.986,12.986,0,0,0,64.645,13.07a19.284,19.284,0,0,1-19.28,19.321,12.986,12.986,0,0,0-13.042,13.07,19.284,19.284,0,0,1-19.28,19.321,13.07,13.07,0,1,0,13.042,13.07,19.284,19.284,0,0,1,19.28-19.321,12.986,12.986,0,0,0,13.042-13.07A19.284,19.284,0,0,1,77.687,26.14,12.986,12.986,0,0,0,90.729,13.07,12.986,12.986,0,0,0,77.687,0Z" transform="translate(323.223 64.782)" fill="#f3f3f3"/>
        <path id="Path_4456" data-name="Path 4456" d="M32.322,45.461A19.284,19.284,0,0,0,13.042,26.14,12.986,12.986,0,0,1,0,13.07a13.042,13.042,0,1,1,26.085,0,19.284,19.284,0,0,0,19.28,19.321,13.07,13.07,0,1,1-13.042,13.07Z" transform="translate(355.545 97.172)" fill="#f3f3f3"/>
        <path id="Path_4457" data-name="Path 4457" d="M77.687,0A12.986,12.986,0,0,0,64.645,13.07a19.284,19.284,0,0,1-19.28,19.321,12.986,12.986,0,0,0-13.042,13.07,19.284,19.284,0,0,1-19.28,19.321,13.07,13.07,0,1,0,13.042,13.07,19.284,19.284,0,0,1,19.28-19.321,12.986,12.986,0,0,0,13.042-13.07A19.284,19.284,0,0,1,77.687,26.14,12.986,12.986,0,0,0,90.729,13.07,12.986,12.986,0,0,0,77.687,0Z" transform="translate(387.867 0)" fill="#f3f3f3"/>
        <path id="Path_4458" data-name="Path 4458" d="M32.322,45.461A19.284,19.284,0,0,0,13.042,26.14,12.986,12.986,0,0,1,0,13.07a13.042,13.042,0,1,1,26.085,0,19.284,19.284,0,0,0,19.28,19.321,13.07,13.07,0,1,1-13.042,13.07Z" transform="translate(355.545 161.954)" fill="#f3f3f3"/>
        <path id="Path_4459" data-name="Path 4459" d="M77.687,0A12.986,12.986,0,0,0,64.644,13.07a19.284,19.284,0,0,1-19.28,19.321,12.986,12.986,0,0,0-13.042,13.07,19.284,19.284,0,0,1-19.28,19.321,13.07,13.07,0,1,0,13.042,13.07,19.284,19.284,0,0,1,19.28-19.321,12.986,12.986,0,0,0,13.042-13.07A19.284,19.284,0,0,1,77.687,26.14,12.986,12.986,0,0,0,90.729,13.07,12.986,12.986,0,0,0,77.687,0Z" transform="translate(355.545 161.954)" fill="#f3f3f3"/>
        <path id="Path_4460" data-name="Path 4460" d="M77.687,0A12.986,12.986,0,0,0,64.645,13.07a19.284,19.284,0,0,1-19.28,19.321,12.986,12.986,0,0,0-13.042,13.07,19.284,19.284,0,0,1-19.28,19.321,13.07,13.07,0,1,0,13.042,13.07,19.284,19.284,0,0,1,19.28-19.321,12.986,12.986,0,0,0,13.042-13.07A19.284,19.284,0,0,1,77.687,26.14,12.986,12.986,0,0,0,90.729,13.07,12.986,12.986,0,0,0,77.687,0Z" transform="translate(420.19 161.954)" fill="#f3f3f3"/>
        <path id="Path_4461" data-name="Path 4461" d="M77.687,0A12.986,12.986,0,0,0,64.645,13.07a19.284,19.284,0,0,1-19.28,19.321,12.986,12.986,0,0,0-13.042,13.07,19.284,19.284,0,0,1-19.28,19.321,13.07,13.07,0,1,0,13.042,13.07,19.284,19.284,0,0,1,19.28-19.321,12.986,12.986,0,0,0,13.042-13.07A19.284,19.284,0,0,1,77.687,26.14,12.986,12.986,0,0,0,90.729,13.07,12.986,12.986,0,0,0,77.687,0Z" transform="translate(387.867 64.782)" fill="#f3f3f3"/>
        <path id="Path_4462" data-name="Path 4462" d="M32.322,45.461A19.284,19.284,0,0,0,13.042,26.14,12.986,12.986,0,0,1,0,13.07a13.042,13.042,0,1,1,26.085,0,19.284,19.284,0,0,0,19.28,19.321,13.07,13.07,0,1,1-13.042,13.07Z" transform="translate(420.53 32.391)" fill="#f3f3f3"/>
        <path id="Path_4463" data-name="Path 4463" d="M77.687,0A12.986,12.986,0,0,0,64.645,13.07a19.284,19.284,0,0,1-19.28,19.321,12.986,12.986,0,0,0-13.042,13.07,19.284,19.284,0,0,1-19.28,19.321,13.07,13.07,0,1,0,13.042,13.07,19.284,19.284,0,0,1,19.28-19.321,12.986,12.986,0,0,0,13.042-13.07A19.284,19.284,0,0,1,77.687,26.14,12.986,12.986,0,0,0,90.729,13.07,12.986,12.986,0,0,0,77.687,0Z" transform="translate(420.19 97.172)" fill="#f3f3f3"/>
        <path id="Path_4464" data-name="Path 4464" d="M32.322,45.461A19.284,19.284,0,0,0,13.042,26.14,12.986,12.986,0,0,1,0,13.07a13.042,13.042,0,1,1,26.085,0,19.284,19.284,0,0,0,19.28,19.321,13.07,13.07,0,1,1-13.042,13.07Z" transform="translate(420.19 161.954)" fill="#f3f3f3"/>
        <path id="Path_4465" data-name="Path 4465" d="M77.687,0A12.986,12.986,0,0,0,64.644,13.07a19.284,19.284,0,0,1-19.28,19.321,12.986,12.986,0,0,0-13.042,13.07,19.284,19.284,0,0,1-19.28,19.321,13.07,13.07,0,1,0,13.042,13.07,19.284,19.284,0,0,1,19.28-19.321,12.986,12.986,0,0,0,13.042-13.07A19.284,19.284,0,0,1,77.687,26.14,12.986,12.986,0,0,0,90.729,13.07,12.986,12.986,0,0,0,77.687,0Z" transform="translate(484.835 161.954)" fill="#f3f3f3"/>
        <path id="Path_4466" data-name="Path 4466" d="M13.042,0A12.986,12.986,0,0,1,26.085,13.07a19.284,19.284,0,0,0,19.28,19.321,12.986,12.986,0,0,1,13.042,13.07,19.284,19.284,0,0,0,19.28,19.321,13.07,13.07,0,1,1-13.042,13.07,19.284,19.284,0,0,0-19.28-19.321,12.986,12.986,0,0,1-13.042-13.07A19.284,19.284,0,0,0,13.042,26.14a13.07,13.07,0,0,1,0-26.14Z" transform="translate(484.835 161.954)" fill="#f3f3f3"/>
        <path id="Path_4467" data-name="Path 4467" d="M13.042,0A12.986,12.986,0,0,1,26.085,13.07a19.284,19.284,0,0,0,19.28,19.321,12.986,12.986,0,0,1,13.042,13.07,19.284,19.284,0,0,0,19.28,19.321,13.07,13.07,0,1,1-13.042,13.07,19.284,19.284,0,0,0-19.28-19.321,12.986,12.986,0,0,1-13.042-13.07A19.284,19.284,0,0,0,13.042,26.14a13.07,13.07,0,0,1,0-26.14Z" transform="translate(484.835 97.172)" fill="#f3f3f3"/>
        <path id="Path_4468" data-name="Path 4468" d="M77.687,0A12.986,12.986,0,0,0,64.644,13.07a19.284,19.284,0,0,1-19.28,19.321,12.986,12.986,0,0,0-13.042,13.07,19.284,19.284,0,0,1-19.28,19.321,13.07,13.07,0,1,0,13.042,13.07,19.284,19.284,0,0,1,19.28-19.321,12.986,12.986,0,0,0,13.042-13.07A19.284,19.284,0,0,1,77.687,26.14,12.986,12.986,0,0,0,90.729,13.07,12.986,12.986,0,0,0,77.687,0Z" transform="translate(484.835 32.391)" fill="#f3f3f3"/>
        <path id="Path_4469" data-name="Path 4469" d="M77.687,0A12.986,12.986,0,0,0,64.645,13.07a19.284,19.284,0,0,1-19.28,19.321,12.986,12.986,0,0,0-13.042,13.07,19.284,19.284,0,0,1-19.28,19.321,13.07,13.07,0,1,0,13.042,13.07,19.284,19.284,0,0,1,19.28-19.321,12.986,12.986,0,0,0,13.042-13.07A19.284,19.284,0,0,1,77.687,26.14,12.986,12.986,0,0,0,90.729,13.07,12.986,12.986,0,0,0,77.687,0Z" transform="translate(452.512 0)" fill="#f3f3f3"/>
        <path id="Path_4470" data-name="Path 4470" d="M13.042,0A12.986,12.986,0,0,1,26.085,13.07a19.284,19.284,0,0,0,19.28,19.321,12.986,12.986,0,0,1,13.042,13.07,19.284,19.284,0,0,0,19.28,19.321,13.07,13.07,0,1,1-13.042,13.07,19.284,19.284,0,0,0-19.28-19.321,12.986,12.986,0,0,1-13.042-13.07A19.284,19.284,0,0,0,13.042,26.14a13.07,13.07,0,0,1,0-26.14Z" transform="translate(484.835 32.391)" fill="#f3f3f3"/>
        <path id="Path_4471" data-name="Path 4471" d="M13.042,0A12.986,12.986,0,0,1,26.085,13.07a19.284,19.284,0,0,0,19.28,19.321,12.986,12.986,0,0,1,13.042,13.07,19.284,19.284,0,0,0,19.28,19.321,13.07,13.07,0,1,1-13.042,13.07,19.284,19.284,0,0,0-19.28-19.321,12.986,12.986,0,0,1-13.042-13.07A19.284,19.284,0,0,0,13.042,26.14a13.07,13.07,0,0,1,0-26.14Z" transform="translate(549.479 161.954)" fill="#f3f3f3"/>
        <path id="Path_4472" data-name="Path 4472" d="M13.042,64.782a19.321,19.321,0,0,0,0-38.642A12.986,12.986,0,0,1,0,13.07a13.042,13.042,0,1,1,26.085,0,19.284,19.284,0,0,0,19.28,19.321,12.986,12.986,0,0,1,13.042,13.07,19.284,19.284,0,0,0,19.28,19.321,13.07,13.07,0,1,1-13.042,13.07,19.28,19.28,0,1,0-38.56,0,13.042,13.042,0,1,1-13.042-13.07Z" transform="translate(581.801 129.563)" fill="#f3f3f3"/>
        <path id="Path_4473" data-name="Path 4473" d="M26.085,45.461A19.284,19.284,0,0,1,45.365,26.14,12.986,12.986,0,0,0,58.407,13.07a13.042,13.042,0,1,0-26.085,0,19.284,19.284,0,0,1-19.28,19.321,13.07,13.07,0,1,0,13.042,13.07Z" transform="translate(581.801 97.172)" fill="#f3f3f3"/>
        <path id="Path_4474" data-name="Path 4474" d="M32.322,45.461A19.284,19.284,0,0,0,13.042,26.14,12.986,12.986,0,0,1,0,13.07a13.042,13.042,0,1,1,26.085,0,19.284,19.284,0,0,0,19.28,19.321,13.07,13.07,0,1,1-13.042,13.07Z" transform="translate(549.479 97.172)" fill="#f3f3f3"/>
        <path id="Path_4475" data-name="Path 4475" d="M13.042,0A12.986,12.986,0,0,1,26.085,13.07a19.284,19.284,0,0,0,19.28,19.321,12.986,12.986,0,0,1,13.042,13.07,19.284,19.284,0,0,0,19.28,19.321,13.07,13.07,0,1,1-13.042,13.07,19.284,19.284,0,0,0-19.28-19.321,12.986,12.986,0,0,1-13.042-13.07A19.284,19.284,0,0,0,13.042,26.14a13.07,13.07,0,0,1,0-26.14Z" transform="translate(517.157 0)" fill="#f3f3f3"/>
        <path id="Path_4476" data-name="Path 4476" d="M26.085,45.461A19.284,19.284,0,0,1,45.365,26.14,12.986,12.986,0,0,0,58.407,13.07a13.042,13.042,0,1,0-26.085,0,19.284,19.284,0,0,1-19.28,19.321,13.07,13.07,0,1,0,13.042,13.07Z" transform="translate(581.801 32.391)" fill="#f3f3f3"/>
        <path id="Path_4477" data-name="Path 4477" d="M32.322,45.461A19.284,19.284,0,0,0,13.042,26.14,12.986,12.986,0,0,1,0,13.07a13.042,13.042,0,1,1,26.085,0,19.284,19.284,0,0,0,19.28,19.321,13.07,13.07,0,1,1-13.042,13.07Z" transform="translate(581.801 64.782)" fill="#f3f3f3"/>
        <path id="Path_4478" data-name="Path 4478" d="M13.042,0A12.986,12.986,0,0,1,26.085,13.07a19.284,19.284,0,0,0,19.28,19.321,12.986,12.986,0,0,1,13.042,13.07,19.284,19.284,0,0,0,19.28,19.321,13.07,13.07,0,1,1-13.042,13.07,19.284,19.284,0,0,0-19.28-19.321,12.986,12.986,0,0,1-13.042-13.07A19.284,19.284,0,0,0,13.042,26.14a13.07,13.07,0,0,1,0-26.14Z" transform="translate(614.124 97.172)" fill="#f3f3f3"/>
        <path id="Path_4479" data-name="Path 4479" d="M26.085,45.461A19.284,19.284,0,0,1,45.365,26.14,12.986,12.986,0,0,0,58.407,13.07a13.042,13.042,0,1,0-26.085,0,19.284,19.284,0,0,1-19.28,19.321,13.07,13.07,0,1,0,13.042,13.07Z" transform="translate(646.446 161.954)" fill="#f3f3f3"/>
        <path id="Path_4480" data-name="Path 4480" d="M13.042,0A12.986,12.986,0,0,1,26.085,13.07a19.284,19.284,0,0,0,19.28,19.321,12.986,12.986,0,0,1,13.042,13.07,19.284,19.284,0,0,0,19.28,19.321,13.07,13.07,0,1,1-13.042,13.07,19.284,19.284,0,0,0-19.28-19.321,12.986,12.986,0,0,1-13.042-13.07A19.284,19.284,0,0,0,13.042,26.14a13.07,13.07,0,0,1,0-26.14Z" transform="translate(678.768 161.954)" fill="#f3f3f3"/>
        <path id="Path_4481" data-name="Path 4481" d="M13.042,0A12.986,12.986,0,0,1,26.085,13.07a19.284,19.284,0,0,0,19.28,19.321,12.986,12.986,0,0,1,13.042,13.07,19.284,19.284,0,0,0,19.28,19.321,13.07,13.07,0,1,1-13.042,13.07,19.284,19.284,0,0,0-19.28-19.321,12.986,12.986,0,0,1-13.042-13.07A19.284,19.284,0,0,0,13.042,26.14a13.07,13.07,0,0,1,0-26.14Z" transform="translate(517.157 259.126)" fill="#f3f3f3"/>
        <path id="Path_4482" data-name="Path 4482" d="M26.085,45.461A19.284,19.284,0,0,1,45.365,26.14,12.986,12.986,0,0,0,58.407,13.07a13.042,13.042,0,1,0-26.085,0,19.284,19.284,0,0,1-19.28,19.321,13.07,13.07,0,1,0,13.042,13.07Z" transform="translate(646.446 97.172)" fill="#f3f3f3"/>
        <path id="Path_4483" data-name="Path 4483" d="M26.085,45.461A19.284,19.284,0,0,1,45.365,26.14,12.986,12.986,0,0,0,58.407,13.07a13.042,13.042,0,1,0-26.085,0,19.284,19.284,0,0,1-19.28,19.321,13.07,13.07,0,1,0,13.042,13.07Z" transform="translate(711.09 161.954)" fill="#f3f3f3"/>
        <path id="Path_4484" data-name="Path 4484" d="M77.687,0A12.986,12.986,0,0,0,64.645,13.07a19.284,19.284,0,0,1-19.28,19.321,12.986,12.986,0,0,0-13.042,13.07,19.284,19.284,0,0,1-19.28,19.321,13.07,13.07,0,1,0,13.042,13.07,19.284,19.284,0,0,1,19.28-19.321,12.986,12.986,0,0,0,13.042-13.07A19.284,19.284,0,0,1,77.687,26.14,12.986,12.986,0,0,0,90.729,13.07,12.986,12.986,0,0,0,77.687,0Z" transform="translate(711.09 194.345)" fill="#f3f3f3"/>
        <path id="Path_4485" data-name="Path 4485" d="M77.687,0A12.986,12.986,0,0,0,64.645,13.07a19.284,19.284,0,0,1-19.28,19.321,12.986,12.986,0,0,0-13.042,13.07,19.284,19.284,0,0,1-19.28,19.321,13.07,13.07,0,1,0,13.042,13.07,19.284,19.284,0,0,1,19.28-19.321,12.986,12.986,0,0,0,13.042-13.07A19.284,19.284,0,0,1,77.687,26.14,12.986,12.986,0,0,0,90.729,13.07,12.986,12.986,0,0,0,77.687,0Z" transform="translate(646.446 259.126)" fill="#f3f3f3"/>
        <path id="Union_20" data-name="Union 20" d="M96.967,13.07a19.284,19.284,0,0,1-19.28,19.321,12.985,12.985,0,0,0-13.042,13.07,19.28,19.28,0,1,1-19.28-19.32A12.986,12.986,0,0,0,58.407,13.07a13.043,13.043,0,1,0-26.085,0A19.284,19.284,0,0,1,13.043,32.391a13.07,13.07,0,0,0,0,26.14,19.321,19.321,0,0,1,0,38.641,13.07,13.07,0,1,0,13.042,13.07,19.285,19.285,0,0,1,19.28-19.321,12.986,12.986,0,0,0,13.043-13.07A19.284,19.284,0,0,1,77.687,58.531a12.986,12.986,0,0,0,13.043-13.07,19.284,19.284,0,0,1,19.28-19.32,12.986,12.986,0,0,0,13.042-13.07,13.042,13.042,0,1,0-26.085,0Z" transform="translate(1028.076 350.048) rotate(180)" fill="#f3f3f3"/>
        <path id="Path_4489" data-name="Path 4489" d="M77.687,0A12.986,12.986,0,0,0,64.645,13.07a19.284,19.284,0,0,1-19.28,19.321,12.986,12.986,0,0,0-13.042,13.07,19.284,19.284,0,0,1-19.28,19.321,13.07,13.07,0,1,0,13.042,13.07,19.284,19.284,0,0,1,19.28-19.321,12.986,12.986,0,0,0,13.042-13.07A19.284,19.284,0,0,1,77.687,26.14,12.986,12.986,0,0,0,90.729,13.07,12.986,12.986,0,0,0,77.687,0Z" transform="translate(775.735 129.563)" fill="#f3f3f3"/>
        <path id="Path_4490" data-name="Path 4490" d="M77.687,0A12.986,12.986,0,0,0,64.645,13.07a19.284,19.284,0,0,1-19.28,19.321,12.986,12.986,0,0,0-13.042,13.07,19.284,19.284,0,0,1-19.28,19.321,13.07,13.07,0,1,0,13.042,13.07,19.284,19.284,0,0,1,19.28-19.321,12.986,12.986,0,0,0,13.042-13.07A19.284,19.284,0,0,1,77.687,26.14,12.986,12.986,0,0,0,90.729,13.07,12.986,12.986,0,0,0,77.687,0Z" transform="translate(808.057 161.954)" fill="#f3f3f3"/>
        <path id="Path_4491" data-name="Path 4491" d="M32.322,45.461A19.284,19.284,0,0,0,13.042,26.14,12.986,12.986,0,0,1,0,13.07a13.042,13.042,0,1,1,26.085,0,19.284,19.284,0,0,0,19.28,19.321,13.07,13.07,0,1,1-13.042,13.07Z" transform="translate(808.057 161.954)" fill="#f3f3f3"/>
        <path id="Path_4492" data-name="Path 4492" d="M32.322,45.461A19.284,19.284,0,0,0,13.042,26.14,12.986,12.986,0,0,1,0,13.07a13.042,13.042,0,1,1,26.085,0,19.284,19.284,0,0,0,19.28,19.321,13.07,13.07,0,1,1-13.042,13.07Z" transform="translate(614.123 291.517)" fill="#f3f3f3"/>
        <path id="Path_4493" data-name="Path 4493" d="M26.085,45.461A19.284,19.284,0,0,1,45.365,26.14,12.986,12.986,0,0,0,58.407,13.07a13.042,13.042,0,1,0-26.085,0,19.284,19.284,0,0,1-19.28,19.321,13.07,13.07,0,1,0,13.042,13.07Z" transform="translate(775.735 97.172)" fill="#f3f3f3"/>
        <path id="Path_4494" data-name="Path 4494" d="M26.085,45.461A19.284,19.284,0,0,1,45.365,26.14,12.986,12.986,0,0,0,58.407,13.07a13.042,13.042,0,1,0-26.085,0,19.284,19.284,0,0,1-19.28,19.321,13.07,13.07,0,1,0,13.042,13.07Z" transform="translate(614.123 259.126)" fill="#f3f3f3"/>
        <path id="Path_4495" data-name="Path 4495" d="M32.322,45.461A19.284,19.284,0,0,0,13.042,26.14,12.986,12.986,0,0,1,0,13.07a13.042,13.042,0,1,1,26.085,0,19.284,19.284,0,0,0,19.28,19.321,13.07,13.07,0,1,1-13.042,13.07Z" transform="translate(484.834 291.517)" fill="#f3f3f3"/>
        <path id="Path_4496" data-name="Path 4496" d="M77.687,0A12.986,12.986,0,0,0,64.645,13.07a19.284,19.284,0,0,1-19.28,19.321,12.986,12.986,0,0,0-13.042,13.07,19.284,19.284,0,0,1-19.28,19.321,13.07,13.07,0,1,0,13.042,13.07,19.284,19.284,0,0,1,19.28-19.321,12.986,12.986,0,0,0,13.042-13.07A19.284,19.284,0,0,1,77.687,26.14,12.986,12.986,0,0,0,90.729,13.07,12.986,12.986,0,0,0,77.687,0Z" transform="translate(452.512 259.126)" fill="#f3f3f3"/>
        <path id="Path_4497" data-name="Path 4497" d="M32.322,45.461A19.284,19.284,0,0,0,13.042,26.14,12.986,12.986,0,0,1,0,13.07a13.042,13.042,0,1,1,26.085,0,19.284,19.284,0,0,0,19.28,19.321,13.07,13.07,0,1,1-13.042,13.07Z" transform="translate(420.19 291.517)" fill="#f3f3f3"/>
        <path id="Path_4498" data-name="Path 4498" d="M26.085,45.461A19.284,19.284,0,0,1,45.365,26.14,12.986,12.986,0,0,0,58.407,13.07a13.042,13.042,0,1,0-26.085,0,19.284,19.284,0,0,1-19.28,19.321,13.07,13.07,0,1,0,13.042,13.07Z" transform="translate(387.868 291.517)" fill="#f3f3f3"/>
        <path id="Path_4499" data-name="Path 4499" d="M26.085,45.461A19.284,19.284,0,0,1,45.365,26.14,12.986,12.986,0,0,0,58.407,13.07a13.042,13.042,0,1,0-26.085,0,19.284,19.284,0,0,1-19.28,19.321,13.07,13.07,0,1,0,13.042,13.07Z" transform="translate(517.157 97.172)" fill="#f3f3f3"/>
        <g id="Group_1321" data-name="Group 1321" transform="translate(290.9 259.126)">
          <path id="Path_4500" data-name="Path 4500" d="M32.322,45.461A19.284,19.284,0,0,0,13.042,26.14,12.986,12.986,0,0,1,0,13.07a13.042,13.042,0,1,1,26.085,0,19.284,19.284,0,0,0,19.28,19.321,13.07,13.07,0,1,1-13.042,13.07Z" transform="translate(64.645 32.391)" fill="#f3f3f3"/>
          <g id="Group_1320" data-name="Group 1320" transform="translate(0)">
            <path id="Path_4501" data-name="Path 4501" d="M77.687,0A12.986,12.986,0,0,0,64.645,13.07a19.284,19.284,0,0,1-19.28,19.321,12.986,12.986,0,0,0-13.042,13.07,19.284,19.284,0,0,1-19.28,19.321,13.07,13.07,0,1,0,13.042,13.07,19.284,19.284,0,0,1,19.28-19.321,12.986,12.986,0,0,0,13.042-13.07A19.284,19.284,0,0,1,77.687,26.14,12.986,12.986,0,0,0,90.729,13.07,12.986,12.986,0,0,0,77.687,0Z" transform="translate(32.322)" fill="#f3f3f3"/>
            <path id="Path_4502" data-name="Path 4502" d="M32.322,45.461A19.284,19.284,0,0,0,13.042,26.14,12.986,12.986,0,0,1,0,13.07a13.042,13.042,0,1,1,26.085,0,19.284,19.284,0,0,0,19.28,19.321,13.07,13.07,0,1,1-13.042,13.07Z" transform="translate(0 32.391)" fill="#f3f3f3"/>
            <path id="Path_4503" data-name="Path 4503" d="M26.085,45.461A19.284,19.284,0,0,1,45.365,26.14,12.986,12.986,0,0,0,58.407,13.07a13.042,13.042,0,1,0-26.085,0,19.284,19.284,0,0,1-19.28,19.321,13.07,13.07,0,1,0,13.042,13.07Z" transform="translate(0 0)" fill="#f3f3f3"/>
          </g>
        </g>
        <g id="Group_1324" data-name="Group 1324" transform="translate(161.611 259.126)">
          <path id="Path_4504" data-name="Path 4504" d="M26.085,45.461A19.284,19.284,0,0,1,45.365,26.14,12.986,12.986,0,0,0,58.407,13.07a13.042,13.042,0,1,0-26.085,0,19.284,19.284,0,0,1-19.28,19.321,13.07,13.07,0,1,0,13.042,13.07Z" transform="translate(96.967 32.391)" fill="#f3f3f3"/>
          <g id="Group_1323" data-name="Group 1323" transform="translate(0)">
            <path id="Path_4505" data-name="Path 4505" d="M32.322,45.461A19.284,19.284,0,0,0,13.042,26.14,12.986,12.986,0,0,1,0,13.07a13.042,13.042,0,1,1,26.085,0,19.284,19.284,0,0,0,19.28,19.321,13.07,13.07,0,1,1-13.042,13.07Z" transform="translate(64.645 32.391)" fill="#f3f3f3"/>
            <g id="Group_1322" data-name="Group 1322">
              <path id="Path_4506" data-name="Path 4506" d="M77.687,0A12.986,12.986,0,0,0,64.644,13.07a19.284,19.284,0,0,1-19.28,19.321,12.986,12.986,0,0,0-13.042,13.07,19.284,19.284,0,0,1-19.28,19.321,13.07,13.07,0,1,0,13.042,13.07,19.284,19.284,0,0,1,19.28-19.321,12.986,12.986,0,0,0,13.042-13.07A19.284,19.284,0,0,1,77.687,26.14,12.986,12.986,0,0,0,90.729,13.07,12.986,12.986,0,0,0,77.687,0Z" transform="translate(32.322)" fill="#f3f3f3"/>
              <path id="Path_4507" data-name="Path 4507" d="M32.322,45.461A19.284,19.284,0,0,0,13.042,26.14,12.986,12.986,0,0,1,0,13.07a13.042,13.042,0,1,1,26.085,0,19.284,19.284,0,0,0,19.28,19.321,13.07,13.07,0,1,1-13.042,13.07Z" transform="translate(0 32.391)" fill="#f3f3f3"/>
              <path id="Path_4508" data-name="Path 4508" d="M26.085,45.461A19.284,19.284,0,0,1,45.365,26.14,12.986,12.986,0,0,0,58.407,13.07a13.042,13.042,0,1,0-26.085,0,19.284,19.284,0,0,1-19.28,19.321,13.07,13.07,0,1,0,13.042,13.07Z" transform="translate(0 0)" fill="#f3f3f3"/>
            </g>
          </g>
        </g>
        <path id="Path_4509" data-name="Path 4509" d="M26.085,45.461A19.284,19.284,0,0,1,45.365,26.14,12.986,12.986,0,0,0,58.407,13.07a13.042,13.042,0,1,0-26.085,0,19.284,19.284,0,0,1-19.28,19.321,13.07,13.07,0,1,0,13.042,13.07Z" transform="translate(129.289 291.517)" fill="#f3f3f3"/>
        <path id="Path_4510" data-name="Path 4510" d="M32.322,45.461A19.284,19.284,0,0,0,13.042,26.14,12.986,12.986,0,0,1,0,13.07a13.042,13.042,0,1,1,26.085,0,19.284,19.284,0,0,0,19.28,19.321,13.07,13.07,0,1,1-13.042,13.07Z" transform="translate(96.967 291.517)" fill="#f3f3f3"/>
        <path id="Path_4511" data-name="Path 4511" d="M77.687,0A12.986,12.986,0,0,0,64.645,13.07a19.284,19.284,0,0,1-19.28,19.321,12.986,12.986,0,0,0-13.042,13.07,19.284,19.284,0,0,1-19.28,19.321,13.07,13.07,0,1,0,13.042,13.07,19.284,19.284,0,0,1,19.28-19.321,12.986,12.986,0,0,0,13.042-13.07A19.284,19.284,0,0,1,77.687,26.14,12.986,12.986,0,0,0,90.729,13.07,12.986,12.986,0,0,0,77.687,0Z" transform="translate(64.645 259.126)" fill="#f3f3f3"/>
        <path id="Path_4512" data-name="Path 4512" d="M32.322,45.461A19.284,19.284,0,0,0,13.042,26.14,12.986,12.986,0,0,1,0,13.07a13.042,13.042,0,1,1,26.085,0,19.284,19.284,0,0,0,19.28,19.321,13.07,13.07,0,1,1-13.042,13.07Z" transform="translate(32.322 291.517)" fill="#f3f3f3"/>
        <path id="Path_4513" data-name="Path 4513" d="M32.322,45.461A19.284,19.284,0,0,0,13.042,26.14,12.986,12.986,0,0,1,0,13.07a13.042,13.042,0,1,1,26.085,0,19.284,19.284,0,0,0,19.28,19.321,13.07,13.07,0,1,1-13.042,13.07Z" transform="translate(64.645 259.126)" fill="#f3f3f3"/>
        <path id="Path_4514" data-name="Path 4514" d="M32.322,45.461A19.284,19.284,0,0,0,13.042,26.14,12.986,12.986,0,0,1,0,13.07a13.042,13.042,0,1,1,26.085,0,19.284,19.284,0,0,0,19.28,19.321,13.07,13.07,0,1,1-13.042,13.07Z" transform="translate(129.289 259.126)" fill="#f3f3f3"/>
        <path id="Path_4515" data-name="Path 4515" d="M32.322,45.461A19.284,19.284,0,0,0,13.042,26.14,12.986,12.986,0,0,1,0,13.07a13.042,13.042,0,1,1,26.085,0,19.284,19.284,0,0,0,19.28,19.321,13.07,13.07,0,1,1-13.042,13.07Z" transform="translate(193.934 259.126)" fill="#f3f3f3"/>
        <path id="Path_4516" data-name="Path 4516" d="M32.322,45.461A19.284,19.284,0,0,0,13.042,26.14,12.986,12.986,0,0,1,0,13.07a13.042,13.042,0,1,1,26.085,0,19.284,19.284,0,0,0,19.28,19.321,13.07,13.07,0,1,1-13.042,13.07Z" transform="translate(0 259.126)" fill="#f3f3f3"/>
        <path id="Path_4517" data-name="Path 4517" d="M26.085,45.461A19.284,19.284,0,0,1,45.365,26.14,12.986,12.986,0,0,0,58.407,13.07a13.042,13.042,0,1,0-26.085,0,19.284,19.284,0,0,1-19.28,19.321,13.07,13.07,0,1,0,13.043,13.07Z" transform="translate(32.322 259.126)" fill="#f3f3f3"/>
        <path id="Path_4518" data-name="Path 4518" d="M26.085,45.461A19.284,19.284,0,0,1,45.364,26.14,12.986,12.986,0,0,0,58.407,13.07a13.042,13.042,0,1,0-26.085,0,19.284,19.284,0,0,1-19.28,19.321,13.07,13.07,0,1,0,13.042,13.07Z" transform="translate(0 291.517)" fill="#f3f3f3"/>
        <path id="Path_4519" data-name="Path 4519" d="M26.085,45.461A19.284,19.284,0,0,1,45.365,26.14,12.986,12.986,0,0,0,58.407,13.07a13.042,13.042,0,1,0-26.085,0,19.284,19.284,0,0,1-19.28,19.321,13.07,13.07,0,1,0,13.042,13.07Z" transform="translate(581.801 291.517)" fill="#f3f3f3"/>
        <path id="Path_4520" data-name="Path 4520" d="M26.085,45.461A19.284,19.284,0,0,1,45.365,26.14,12.986,12.986,0,0,0,58.407,13.07a13.042,13.042,0,1,0-26.085,0,19.284,19.284,0,0,1-19.28,19.321,13.07,13.07,0,1,0,13.042,13.07Z" transform="translate(808.057 259.126)" fill="#f3f3f3"/>
        <path id="Path_4521" data-name="Path 4521" d="M77.687,0A12.986,12.986,0,0,0,64.645,13.07a19.284,19.284,0,0,1-19.28,19.321,12.986,12.986,0,0,0-13.042,13.07,19.284,19.284,0,0,1-19.28,19.321,13.07,13.07,0,1,0,13.042,13.07,19.284,19.284,0,0,1,19.28-19.321,12.986,12.986,0,0,0,13.042-13.07A19.284,19.284,0,0,1,77.687,26.14,12.986,12.986,0,0,0,90.729,13.07,12.986,12.986,0,0,0,77.687,0Z" transform="translate(711.09 64.782)" fill="#f3f3f3"/>
        <path id="Path_4522" data-name="Path 4522" d="M26.085,45.461A19.284,19.284,0,0,1,45.365,26.14,12.986,12.986,0,0,0,58.407,13.07a13.042,13.042,0,1,0-26.085,0,19.284,19.284,0,0,1-19.28,19.321,13.07,13.07,0,1,0,13.042,13.07Z" transform="translate(646.446 32.391)" fill="#f3f3f3"/>
        <path id="Path_4523" data-name="Path 4523" d="M32.322,45.461A19.284,19.284,0,0,0,13.042,26.14,13.07,13.07,0,1,1,26.085,13.07a19.284,19.284,0,0,0,19.28,19.321,13.07,13.07,0,1,1-13.042,13.07Z" transform="translate(646.446 0)" fill="#f3f3f3"/>
        <path id="Path_4524" data-name="Path 4524" d="M13.042,0A12.986,12.986,0,0,1,26.085,13.07a19.284,19.284,0,0,0,19.28,19.321,12.986,12.986,0,0,1,13.042,13.07,19.284,19.284,0,0,0,19.28,19.321,13.07,13.07,0,1,1-13.042,13.07,19.284,19.284,0,0,0-19.28-19.321,12.986,12.986,0,0,1-13.042-13.07A19.284,19.284,0,0,0,13.042,26.14a13.07,13.07,0,0,1,0-26.14Z" transform="translate(678.768 32.391)" fill="#f3f3f3"/>
        <path id="Path_4525" data-name="Path 4525" d="M26.085,45.461A19.284,19.284,0,0,1,45.365,26.14,12.986,12.986,0,0,0,58.407,13.07a13.042,13.042,0,1,0-26.085,0,19.284,19.284,0,0,1-19.28,19.321,13.07,13.07,0,1,0,13.042,13.07Z" transform="translate(711.09 32.391)" fill="#f3f3f3"/>
        <path id="Path_4526" data-name="Path 4526" d="M13.042,0A12.986,12.986,0,0,1,26.085,13.07a19.284,19.284,0,0,0,19.28,19.321,12.986,12.986,0,0,1,13.042,13.07,19.284,19.284,0,0,0,19.28,19.321,12.986,12.986,0,0,1,13.042,13.07,19.284,19.284,0,0,0,19.28,19.321,12.986,12.986,0,0,1,13.042,13.07,19.284,19.284,0,0,0,19.28,19.321,12.986,12.986,0,0,1,13.042,13.07,19.284,19.284,0,0,0,19.28,19.321,12.986,12.986,0,0,1,13.042,13.07,19.284,19.284,0,0,0,19.28,19.321,13.07,13.07,0,1,1-13.042,13.07,19.284,19.284,0,0,0-19.28-19.321,12.986,12.986,0,0,1-13.042-13.07,19.284,19.284,0,0,0-19.28-19.321,12.986,12.986,0,0,1-13.042-13.07,19.284,19.284,0,0,0-19.28-19.321,12.986,12.986,0,0,1-13.042-13.07,19.284,19.284,0,0,0-19.28-19.321,12.986,12.986,0,0,1-13.042-13.07,19.284,19.284,0,0,0-19.28-19.321,12.986,12.986,0,0,1-13.042-13.07A19.284,19.284,0,0,0,13.042,26.14a13.07,13.07,0,0,1,0-26.14Z" transform="translate(711.09)" fill="#f3f3f3"/>
        <path id="Path_4527" data-name="Path 4527" d="M13.042,0A12.986,12.986,0,0,1,26.085,13.07a19.284,19.284,0,0,0,19.28,19.321,12.986,12.986,0,0,1,13.042,13.07,19.284,19.284,0,0,0,19.28,19.321,12.986,12.986,0,0,1,13.042,13.07,19.284,19.284,0,0,0,19.28,19.321,12.986,12.986,0,0,1,13.042,13.07,19.284,19.284,0,0,0,19.28,19.321,12.986,12.986,0,0,1,13.042,13.07,19.284,19.284,0,0,0,19.28,19.321,12.986,12.986,0,0,1,13.042,13.07,19.284,19.284,0,0,0,19.28,19.321,13.07,13.07,0,1,1-13.042,13.07,19.284,19.284,0,0,0-19.28-19.321,12.986,12.986,0,0,1-13.042-13.07,19.284,19.284,0,0,0-19.28-19.321,12.986,12.986,0,0,1-13.042-13.07,19.284,19.284,0,0,0-19.28-19.321,12.986,12.986,0,0,1-13.042-13.07,19.284,19.284,0,0,0-19.28-19.321,12.986,12.986,0,0,1-13.042-13.07,19.284,19.284,0,0,0-19.28-19.321,12.986,12.986,0,0,1-13.042-13.07A19.284,19.284,0,0,0,13.042,26.14a13.07,13.07,0,0,1,0-26.14Z" transform="translate(581.801 129.563)" fill="#f3f3f3"/>
        <path id="Path_4528" data-name="Path 4528" d="M77.687,0A12.986,12.986,0,0,0,64.645,13.07a19.284,19.284,0,0,1-19.28,19.321,12.986,12.986,0,0,0-13.042,13.07,19.284,19.284,0,0,1-19.28,19.321,13.07,13.07,0,1,0,13.042,13.07,19.284,19.284,0,0,1,19.28-19.321,12.986,12.986,0,0,0,13.042-13.07A19.284,19.284,0,0,1,77.687,26.14,12.986,12.986,0,0,0,90.729,13.07,12.986,12.986,0,0,0,77.687,0Z" transform="translate(775.735 0)" fill="#f3f3f3"/>
        <ellipse id="Ellipse_564" data-name="Ellipse 564" cx="12.735" cy="12.949" rx="12.735" ry="12.949" transform="translate(776.057 0.028)" fill="#f3f3f3"/>
        <ellipse id="Ellipse_565" data-name="Ellipse 565" cx="12.922" cy="13.137" rx="12.922" ry="13.137" transform="translate(711.261 323.57)" fill="#f3f3f3"/>
        <path id="Path_4529" data-name="Path 4529" d="M32.322,45.461A19.284,19.284,0,0,0,13.042,26.14,12.986,12.986,0,0,1,0,13.07a13.042,13.042,0,1,1,26.085,0,19.284,19.284,0,0,0,19.28,19.321,13.07,13.07,0,1,1-13.042,13.07Z" transform="translate(808.057 32.391)" fill="#f3f3f3"/>
        <path id="Path_4530" data-name="Path 4530" d="M77.687,0A12.986,12.986,0,0,0,64.645,13.07a19.284,19.284,0,0,1-19.28,19.321,12.986,12.986,0,0,0-13.042,13.07,19.284,19.284,0,0,1-19.28,19.321,13.07,13.07,0,1,0,13.042,13.07,19.284,19.284,0,0,1,19.28-19.321,12.986,12.986,0,0,0,13.042-13.07A19.284,19.284,0,0,1,77.687,26.14,12.986,12.986,0,0,0,90.729,13.07,12.986,12.986,0,0,0,77.687,0Z" transform="translate(808.057 32.391)" fill="#f3f3f3"/>
        <path id="Path_4531" data-name="Path 4531" d="M13.042,0A12.986,12.986,0,0,1,26.085,13.07a19.284,19.284,0,0,0,19.28,19.321,12.986,12.986,0,0,1,13.042,13.07,19.284,19.284,0,0,0,19.28,19.321,13.07,13.07,0,1,1-13.042,13.07,19.284,19.284,0,0,0-19.28-19.321,12.986,12.986,0,0,1-13.042-13.07A19.284,19.284,0,0,0,13.042,26.14a13.07,13.07,0,0,1,0-26.14Z" transform="translate(840.38 0)" fill="#f3f3f3"/>
        <path id="Path_4532" data-name="Path 4532" d="M32.322,45.461A19.284,19.284,0,0,0,13.042,26.14,12.986,12.986,0,0,1,0,13.07a13.042,13.042,0,1,1,26.085,0,19.284,19.284,0,0,0,19.28,19.321,13.07,13.07,0,1,1-13.042,13.07Z" transform="translate(905.251 0)" fill="#f3f3f3"/>
        <path id="Union_21" data-name="Union 21" d="M32.322,77.851a19.284,19.284,0,0,0-19.28-19.321,13.07,13.07,0,0,1,0-26.14A19.284,19.284,0,0,0,32.322,13.07a13.042,13.042,0,1,1,26.085,0A12.986,12.986,0,0,1,45.365,26.14a19.321,19.321,0,0,0,0,38.642,13.07,13.07,0,1,1-13.042,13.07Z" transform="translate(1028.076 90.921) rotate(180)" fill="#f3f3f3"/>
        <ellipse id="Ellipse_566" data-name="Ellipse 566" cx="13.109" cy="12.949" rx="13.109" ry="12.949" transform="translate(1034.493 0.028)" fill="#f3f3f3"/>
        <path id="Path_4534" data-name="Path 4534" d="M26.085,13.07a19.284,19.284,0,0,0,19.28,19.321,13.07,13.07,0,0,1,0,26.14,19.284,19.284,0,0,0-19.28,19.321,13.042,13.042,0,1,1-13.042-13.07,19.321,19.321,0,0,0,0-38.642A12.986,12.986,0,0,1,0,13.07a13.042,13.042,0,1,1,26.085,0Z" transform="translate(969.669 129.563)" fill="#f3f3f3"/>
        <path id="Path_4535" data-name="Path 4535" d="M13.042,0A12.986,12.986,0,0,1,26.085,13.07a19.28,19.28,0,1,0,38.56,0,13.042,13.042,0,1,1,26.085,0A12.986,12.986,0,0,1,77.687,26.14a19.321,19.321,0,0,0,0,38.642,13.07,13.07,0,1,1-13.042,13.07,19.284,19.284,0,0,0-19.28-19.321,12.986,12.986,0,0,1-13.042-13.07A19.284,19.284,0,0,0,13.042,26.14,12.986,12.986,0,0,1,0,13.07,12.986,12.986,0,0,1,13.042,0Z" transform="translate(872.929 97.172)" fill="#f3f3f3"/>
        <path id="Path_4536" data-name="Path 4536" d="M77.687,90.921a12.986,12.986,0,0,1-13.042-13.07,19.28,19.28,0,1,0-38.56,0,13.042,13.042,0,1,1-13.042-13.07,19.321,19.321,0,0,0,0-38.642A12.986,12.986,0,0,1,0,13.07a13.042,13.042,0,1,1,26.085,0,19.284,19.284,0,0,0,19.28,19.321,12.986,12.986,0,0,1,13.042,13.07,19.284,19.284,0,0,0,19.28,19.321,13.07,13.07,0,0,1,0,26.14Z" transform="translate(840.38 259.126)" fill="#f3f3f3"/>
      </g>
      <g id="Key_Graphic_copy" transform="translate(1033.973 129.563)">
        <g id="Group_1328" data-name="Group 1328" transform="translate(0 0)">
          <ellipse id="Ellipse_567" data-name="Ellipse 567" cx="13.042" cy="13.07" rx="13.042" ry="13.07" fill="#f3f3f3"/>
          <ellipse id="Ellipse_568" data-name="Ellipse 568" cx="13.042" cy="13.07" rx="13.042" ry="13.07" transform="translate(0 64.782)" fill="#f3f3f3"/>
        </g>
      </g>
    </g>
  </g>
</svg>
