<svg xmlns="http://www.w3.org/2000/svg" xmlns:xlink="http://www.w3.org/1999/xlink" width="313.476" height="352.14" viewBox="0 0 313.476 352.14">
  <defs>
    <clipPath id="clip-path">
      <rect id="Rectangle_404" data-name="Rectangle 404" width="313.476" height="352.14" transform="translate(0)" fill="#f3f3f3"/>
    </clipPath>
  </defs>
  <g id="Mask_Group_39" data-name="Mask Group 39" clip-path="url(#clip-path)">
    <g id="_x31_-Color_Magenta_00000173149901489903638690000013644820134866672774_" transform="translate(128.934 -0.027)">
      <g id="Group_1318" data-name="Group 1318" transform="translate(0)">
        <path id="Path_4252" data-name="Path 4252" d="M13.042,26.14a19.284,19.284,0,0,1,19.28,19.321,13.042,13.042,0,1,0,26.085,0A19.284,19.284,0,0,1,77.687,26.14,12.986,12.986,0,0,0,90.729,13.07a13.042,13.042,0,1,0-26.085,0,19.28,19.28,0,1,1-38.56,0A13.042,13.042,0,1,0,0,13.07,12.986,12.986,0,0,0,13.042,26.14Z" transform="translate(161.612 226.736)" fill="#f3f3f3"/>
        <path id="Path_4253" data-name="Path 4253" d="M271.621,0a12.986,12.986,0,0,0-13.042,13.07A19.284,19.284,0,0,1,239.3,32.391a12.986,12.986,0,0,0-13.042,13.07,19.284,19.284,0,0,1-19.28,19.321,12.986,12.986,0,0,0-13.042,13.07,19.284,19.284,0,0,1-19.28,19.321,12.986,12.986,0,0,0-13.042,13.07,19.284,19.284,0,0,1-19.28,19.321,12.986,12.986,0,0,0-13.042,13.07,19.284,19.284,0,0,1-19.28,19.321,12.986,12.986,0,0,0-13.042,13.07,19.284,19.284,0,0,1-19.28,19.321,12.986,12.986,0,0,0-13.042,13.07,19.284,19.284,0,0,1-19.28,19.321,12.986,12.986,0,0,0-13.042,13.07,19.284,19.284,0,0,1-19.28,19.321A13.07,13.07,0,1,0,26.085,272.2a19.284,19.284,0,0,1,19.28-19.321,12.986,12.986,0,0,0,13.042-13.07,19.284,19.284,0,0,1,19.28-19.321,12.986,12.986,0,0,0,13.042-13.07,19.284,19.284,0,0,1,19.28-19.321,12.986,12.986,0,0,0,13.042-13.07,19.284,19.284,0,0,1,19.28-19.321,12.986,12.986,0,0,0,13.042-13.07,19.284,19.284,0,0,1,19.28-19.321,12.986,12.986,0,0,0,13.042-13.07,19.284,19.284,0,0,1,19.28-19.321,12.986,12.986,0,0,0,13.042-13.07A19.284,19.284,0,0,1,239.3,58.531a12.986,12.986,0,0,0,13.042-13.07,19.284,19.284,0,0,1,19.28-19.321,13.07,13.07,0,0,0,0-26.14Z" transform="translate(258.579 0)" fill="#f3f3f3"/>
        <ellipse id="Ellipse_551" data-name="Ellipse 551" cx="12.735" cy="13.137" rx="12.735" ry="13.137" transform="translate(323.517 259.012)" fill="#f3f3f3"/>
        <path id="Path_4254" data-name="Path 4254" d="M77.687,0A12.986,12.986,0,0,0,64.645,13.07a19.284,19.284,0,0,1-19.28,19.321,12.986,12.986,0,0,0-13.042,13.07,19.284,19.284,0,0,1-19.28,19.321,13.07,13.07,0,1,0,13.042,13.07,19.284,19.284,0,0,1,19.28-19.321,12.986,12.986,0,0,0,13.042-13.07A19.284,19.284,0,0,1,77.687,26.14a13.07,13.07,0,0,0,0-26.14Z" transform="translate(387.868 194.345)" fill="#f3f3f3"/>
        <path id="Path_4255" data-name="Path 4255" d="M13.042,26.14a19.284,19.284,0,0,1,19.28,19.321,13.042,13.042,0,1,0,26.085,0A19.284,19.284,0,0,1,77.687,26.14,12.986,12.986,0,0,0,90.729,13.07a13.042,13.042,0,1,0-26.085,0,19.28,19.28,0,1,1-38.56,0A13.042,13.042,0,1,0,0,13.07,12.986,12.986,0,0,0,13.042,26.14Z" transform="translate(420.19 226.736)" fill="#f3f3f3"/>
        <path id="Path_4256" data-name="Path 4256" d="M13.042,26.14a19.284,19.284,0,0,1,19.28,19.321,13.042,13.042,0,1,0,26.085,0A19.284,19.284,0,0,1,77.687,26.14,12.986,12.986,0,0,0,90.729,13.07a13.042,13.042,0,1,0-26.085,0,19.28,19.28,0,1,1-38.56,0A13.042,13.042,0,1,0,0,13.07,12.986,12.986,0,0,0,13.042,26.14Z" transform="translate(484.835 226.736)" fill="#f3f3f3"/>
        <path id="Path_4257" data-name="Path 4257" d="M13.042,26.14a19.284,19.284,0,0,1,19.28,19.321,13.042,13.042,0,1,0,26.085,0A19.284,19.284,0,0,1,77.687,26.14,12.986,12.986,0,0,0,90.729,13.07a13.042,13.042,0,1,0-26.085,0,19.28,19.28,0,1,1-38.56,0A13.042,13.042,0,1,0,0,13.07,12.986,12.986,0,0,0,13.042,26.14Z" transform="translate(549.479 226.736)" fill="#f3f3f3"/>
        <path id="Path_4258" data-name="Path 4258" d="M32.322,45.461A19.284,19.284,0,0,0,13.042,26.14,12.986,12.986,0,0,1,0,13.07a13.042,13.042,0,1,1,26.085,0,19.284,19.284,0,0,0,19.28,19.321,13.07,13.07,0,1,1-13.042,13.07Z" transform="translate(614.124 226.736)" fill="#f3f3f3"/>
        <path id="Path_4259" data-name="Path 4259" d="M13.042,26.14a19.284,19.284,0,0,1,19.28,19.321,13.042,13.042,0,1,0,26.085,0A19.284,19.284,0,0,1,77.687,26.14,12.986,12.986,0,0,0,90.729,13.07a13.042,13.042,0,1,0-26.085,0,19.28,19.28,0,1,1-38.56,0A13.042,13.042,0,1,0,0,13.07,12.986,12.986,0,0,0,13.042,26.14Z" transform="translate(614.124 226.736)" fill="#f3f3f3"/>
        <path id="Path_4260" data-name="Path 4260" d="M13.042,26.14a19.284,19.284,0,0,1,19.28,19.321,13.042,13.042,0,1,0,26.085,0A19.284,19.284,0,0,1,77.687,26.14,12.986,12.986,0,0,0,90.729,13.07a13.042,13.042,0,1,0-26.085,0,19.28,19.28,0,1,1-38.56,0A13.042,13.042,0,1,0,0,13.07,12.986,12.986,0,0,0,13.042,26.14Z" transform="translate(678.768 226.736)" fill="#f3f3f3"/>
        <path id="Path_4261" data-name="Path 4261" d="M32.322,45.461A19.284,19.284,0,0,0,13.042,26.14,12.986,12.986,0,0,1,0,13.07a13.042,13.042,0,1,1,26.085,0,19.284,19.284,0,0,0,19.28,19.321,13.07,13.07,0,1,1-13.042,13.07Z" transform="translate(743.413 226.736)" fill="#f3f3f3"/>
        <path id="Path_4262" data-name="Path 4262" d="M13.042,26.14a19.284,19.284,0,0,1,19.28,19.321,13.042,13.042,0,1,0,26.085,0A19.284,19.284,0,0,1,77.687,26.14,12.986,12.986,0,0,0,90.729,13.07a13.042,13.042,0,1,0-26.085,0,19.28,19.28,0,1,1-38.56,0A13.042,13.042,0,1,0,0,13.07,12.986,12.986,0,0,0,13.042,26.14Z" transform="translate(743.413 226.736)" fill="#f3f3f3"/>
        <path id="Path_4263" data-name="Path 4263" d="M13.042,26.14a19.284,19.284,0,0,1,19.28,19.321,13.042,13.042,0,1,0,26.085,0A19.284,19.284,0,0,1,77.687,26.14,12.986,12.986,0,0,0,90.729,13.07a13.042,13.042,0,1,0-26.085,0,19.28,19.28,0,1,1-38.56,0A13.042,13.042,0,1,0,0,13.07,12.986,12.986,0,0,0,13.042,26.14Z" transform="translate(808.058 226.736)" fill="#f3f3f3"/>
        <path id="Path_4264" data-name="Path 4264" d="M13.042,26.14a19.284,19.284,0,0,1,19.28,19.321,13.042,13.042,0,1,0,26.085,0A19.284,19.284,0,0,1,77.687,26.14,12.986,12.986,0,0,0,90.729,13.07a13.042,13.042,0,1,0-26.085,0,19.28,19.28,0,1,1-38.56,0A13.042,13.042,0,1,0,0,13.07,12.986,12.986,0,0,0,13.042,26.14Z" transform="translate(872.703 226.736)" fill="#f3f3f3"/>
        <path id="Path_4265" data-name="Path 4265" d="M13.042,26.14a19.284,19.284,0,0,1,19.28,19.321,13.042,13.042,0,1,0,26.085,0A19.284,19.284,0,0,1,77.687,26.14,12.986,12.986,0,0,0,90.729,13.07a13.042,13.042,0,1,0-26.085,0,19.28,19.28,0,1,1-38.56,0A13.042,13.042,0,1,0,0,13.07,12.986,12.986,0,0,0,13.042,26.14Z" transform="translate(937.347 226.736)" fill="#f3f3f3"/>
        <path id="Path_4266" data-name="Path 4266" d="M13.042,26.14a19.284,19.284,0,0,1,19.28,19.321,13.042,13.042,0,1,0,26.085,0A19.284,19.284,0,0,1,77.687,26.14,12.986,12.986,0,0,0,90.729,13.07a13.042,13.042,0,1,0-26.085,0,19.28,19.28,0,1,1-38.56,0A13.042,13.042,0,1,0,0,13.07,12.986,12.986,0,0,0,13.042,26.14Z" transform="translate(1001.992 226.736)" fill="#f3f3f3"/>
        <path id="Path_4267" data-name="Path 4267" d="M32.322,45.461A19.284,19.284,0,0,0,13.042,26.14,12.986,12.986,0,0,1,0,13.07a13.042,13.042,0,1,1,26.085,0,19.284,19.284,0,0,0,19.28,19.321,13.07,13.07,0,1,1-13.042,13.07Z" transform="translate(1066.636 226.736)" fill="#f3f3f3"/>
        <path id="Path_4268" data-name="Path 4268" d="M32.322,45.461A19.284,19.284,0,0,0,13.042,26.14,12.986,12.986,0,0,1,0,13.07a13.042,13.042,0,1,1,26.085,0,19.284,19.284,0,0,0,19.28,19.321,13.07,13.07,0,1,1-13.043,13.07Z" transform="translate(1034.314 194.345)" fill="#f3f3f3"/>
        <path id="Path_4269" data-name="Path 4269" d="M26.085,45.461A19.284,19.284,0,0,1,45.365,26.14,12.986,12.986,0,0,0,58.407,13.07a13.042,13.042,0,1,0-26.085,0,19.284,19.284,0,0,1-19.28,19.321,13.07,13.07,0,1,0,13.042,13.07Z" transform="translate(1066.636 194.345)" fill="#f3f3f3"/>
        <path id="Path_4270" data-name="Path 4270" d="M13.042,0A12.986,12.986,0,0,1,26.085,13.07a19.284,19.284,0,0,0,19.28,19.321,12.986,12.986,0,0,1,13.042,13.07,19.284,19.284,0,0,0,19.28,19.321,13.07,13.07,0,1,1-13.042,13.07,19.284,19.284,0,0,0-19.28-19.321,12.986,12.986,0,0,1-13.043-13.07A19.284,19.284,0,0,0,13.042,26.14,12.986,12.986,0,0,1,0,13.07,12.986,12.986,0,0,1,13.042,0Z" transform="translate(1034.314 129.563)" fill="#f3f3f3"/>
        <path id="Path_4271" data-name="Path 4271" d="M26.085,45.461A19.284,19.284,0,0,1,45.365,26.14,12.986,12.986,0,0,0,58.407,13.07a13.042,13.042,0,1,0-26.085,0,19.284,19.284,0,0,1-19.28,19.321,13.07,13.07,0,1,0,13.042,13.07Z" transform="translate(1066.636 129.563)" fill="#f3f3f3"/>
        <path id="Path_4272" data-name="Path 4272" d="M77.687,0A12.986,12.986,0,0,0,64.644,13.07a19.284,19.284,0,0,1-19.28,19.321,12.986,12.986,0,0,0-13.042,13.07,19.284,19.284,0,0,1-19.28,19.321,13.07,13.07,0,1,0,13.042,13.07,19.284,19.284,0,0,1,19.28-19.321,12.986,12.986,0,0,0,13.042-13.07A19.284,19.284,0,0,1,77.687,26.14a13.07,13.07,0,0,0,0-26.14Z" transform="translate(1001.992 161.954)" fill="#f3f3f3"/>
        <path id="Path_4273" data-name="Path 4273" d="M13.042,0A12.986,12.986,0,0,1,26.085,13.07a19.284,19.284,0,0,0,19.28,19.321,12.986,12.986,0,0,1,13.042,13.07,19.284,19.284,0,0,0,19.28,19.321,13.07,13.07,0,1,1-13.042,13.07,19.284,19.284,0,0,0-19.28-19.321,12.986,12.986,0,0,1-13.043-13.07A19.284,19.284,0,0,0,13.042,26.14,12.986,12.986,0,0,1,0,13.07,12.986,12.986,0,0,1,13.042,0Z" transform="translate(1034.314 64.782)" fill="#f3f3f3"/>
        <path id="Path_4274" data-name="Path 4274" d="M26.085,45.461A19.284,19.284,0,0,1,45.365,26.14,12.986,12.986,0,0,0,58.407,13.07a13.042,13.042,0,1,0-26.085,0,19.284,19.284,0,0,1-19.28,19.321,13.07,13.07,0,1,0,13.042,13.07Z" transform="translate(1066.636 64.782)" fill="#f3f3f3"/>
        <path id="Path_4275" data-name="Path 4275" d="M13.042,0A12.986,12.986,0,0,1,26.085,13.07a19.284,19.284,0,0,0,19.28,19.321,12.986,12.986,0,0,1,13.042,13.07,19.284,19.284,0,0,0,19.28,19.321,13.07,13.07,0,1,1-13.042,13.07,19.284,19.284,0,0,0-19.28-19.321,12.986,12.986,0,0,1-13.043-13.07A19.284,19.284,0,0,0,13.042,26.14,12.986,12.986,0,0,1,0,13.07,12.986,12.986,0,0,1,13.042,0Z" transform="translate(1034.314 0)" fill="#f3f3f3"/>
        <path id="Path_4276" data-name="Path 4276" d="M77.687,0A12.986,12.986,0,0,0,64.645,13.07a19.284,19.284,0,0,1-19.28,19.321,12.986,12.986,0,0,0-13.043,13.07,19.284,19.284,0,0,1-19.28,19.321,13.07,13.07,0,1,0,13.042,13.07,19.284,19.284,0,0,1,19.28-19.321,12.986,12.986,0,0,0,13.042-13.07A19.284,19.284,0,0,1,77.687,26.14a13.07,13.07,0,0,0,0-26.14Z" transform="translate(1034.314 0)" fill="#f3f3f3"/>
        <path id="Path_4277" data-name="Path 4277" d="M77.687,0A12.986,12.986,0,0,0,64.645,13.07a19.284,19.284,0,0,1-19.28,19.321,12.986,12.986,0,0,0-13.042,13.07,19.284,19.284,0,0,1-19.28,19.321,13.07,13.07,0,1,0,13.042,13.07,19.284,19.284,0,0,1,19.28-19.321,12.986,12.986,0,0,0,13.042-13.07A19.284,19.284,0,0,1,77.687,26.14a13.07,13.07,0,0,0,0-26.14Z" transform="translate(969.669 0)" fill="#f3f3f3"/>
        <path id="Path_4278" data-name="Path 4278" d="M77.687,0A12.986,12.986,0,0,0,64.644,13.07a19.284,19.284,0,0,1-19.28,19.321,12.986,12.986,0,0,0-13.042,13.07,19.284,19.284,0,0,1-19.28,19.321,13.07,13.07,0,1,0,13.042,13.07,19.284,19.284,0,0,1,19.28-19.321,12.986,12.986,0,0,0,13.042-13.07A19.284,19.284,0,0,1,77.687,26.14a13.07,13.07,0,0,0,0-26.14Z" transform="translate(1001.992 97.172)" fill="#f3f3f3"/>
        <path id="Path_4279" data-name="Path 4279" d="M13.042,0A12.986,12.986,0,0,1,26.085,13.07a19.284,19.284,0,0,0,19.28,19.321,12.986,12.986,0,0,1,13.042,13.07,19.284,19.284,0,0,0,19.28,19.321,13.07,13.07,0,1,1-13.042,13.07,19.284,19.284,0,0,0-19.28-19.321,12.986,12.986,0,0,1-13.042-13.07A19.284,19.284,0,0,0,13.042,26.14,12.986,12.986,0,0,1,0,13.07,12.986,12.986,0,0,1,13.042,0Z" transform="translate(969.669 129.563)" fill="#f3f3f3"/>
        <path id="Path_4280" data-name="Path 4280" d="M13.042,0A12.986,12.986,0,0,1,26.085,13.07a19.284,19.284,0,0,0,19.28,19.321,12.986,12.986,0,0,1,13.042,13.07,19.284,19.284,0,0,0,19.28,19.321,13.07,13.07,0,1,1-13.042,13.07,19.284,19.284,0,0,0-19.28-19.321,12.986,12.986,0,0,1-13.042-13.07A19.284,19.284,0,0,0,13.042,26.14,12.986,12.986,0,0,1,0,13.07,12.986,12.986,0,0,1,13.042,0Z" transform="translate(969.669 64.782)" fill="#f3f3f3"/>
        <path id="Path_4281" data-name="Path 4281" d="M13.042,0A12.986,12.986,0,0,1,26.085,13.07a19.284,19.284,0,0,0,19.28,19.321,12.986,12.986,0,0,1,13.042,13.07,19.284,19.284,0,0,0,19.28,19.321,13.07,13.07,0,1,1-13.042,13.07,19.284,19.284,0,0,0-19.28-19.321,12.986,12.986,0,0,1-13.042-13.07A19.284,19.284,0,0,0,13.042,26.14,12.986,12.986,0,0,1,0,13.07,12.986,12.986,0,0,1,13.042,0Z" transform="translate(969.669 0)" fill="#f3f3f3"/>
        <path id="Path_4282" data-name="Path 4282" d="M26.085,45.461A19.284,19.284,0,0,1,45.365,26.14,12.986,12.986,0,0,0,58.407,13.07a13.042,13.042,0,1,0-26.085,0,19.284,19.284,0,0,1-19.28,19.321,13.07,13.07,0,1,0,13.042,13.07Z" transform="translate(1001.992 64.782)" fill="#f3f3f3"/>
        <path id="Path_4283" data-name="Path 4283" d="M77.687,0A12.986,12.986,0,0,0,64.645,13.07a19.284,19.284,0,0,1-19.28,19.321,12.986,12.986,0,0,0-13.042,13.07,19.284,19.284,0,0,1-19.28,19.321,13.07,13.07,0,1,0,13.042,13.07,19.284,19.284,0,0,1,19.28-19.321,12.986,12.986,0,0,0,13.042-13.07A19.284,19.284,0,0,1,77.687,26.14a13.07,13.07,0,0,0,0-26.14Z" transform="translate(937.347 97.172)" fill="#f3f3f3"/>
        <path id="Path_4284" data-name="Path 4284" d="M77.687,0A12.986,12.986,0,0,0,64.645,13.07a19.284,19.284,0,0,1-19.28,19.321,12.986,12.986,0,0,0-13.042,13.07,19.284,19.284,0,0,1-19.28,19.321,13.07,13.07,0,1,0,13.042,13.07,19.284,19.284,0,0,1,19.28-19.321,12.986,12.986,0,0,0,13.042-13.07A19.284,19.284,0,0,1,77.687,26.14a13.07,13.07,0,0,0,0-26.14Z" transform="translate(937.347 161.954)" fill="#f3f3f3"/>
        <path id="Path_4285" data-name="Path 4285" d="M32.322,45.461A19.284,19.284,0,0,0,13.042,26.14,12.986,12.986,0,0,1,0,13.07a13.042,13.042,0,1,1,26.085,0,19.284,19.284,0,0,0,19.28,19.321,13.07,13.07,0,1,1-13.042,13.07Z" transform="translate(969.669 194.345)" fill="#f3f3f3"/>
        <path id="Path_4286" data-name="Path 4286" d="M32.322,45.461A19.284,19.284,0,0,0,13.042,26.14,12.986,12.986,0,0,1,0,13.07a13.042,13.042,0,1,1,26.085,0,19.284,19.284,0,0,0,19.28,19.321,13.07,13.07,0,1,1-13.042,13.07Z" transform="translate(905.025 194.345)" fill="#f3f3f3"/>
        <path id="Path_4287" data-name="Path 4287" d="M13.042,0A12.986,12.986,0,0,1,26.085,13.07a19.284,19.284,0,0,0,19.28,19.321,12.986,12.986,0,0,1,13.042,13.07,19.284,19.284,0,0,0,19.28,19.321,13.07,13.07,0,1,1-13.042,13.07,19.284,19.284,0,0,0-19.28-19.321,12.986,12.986,0,0,1-13.042-13.07A19.284,19.284,0,0,0,13.042,26.14,12.986,12.986,0,0,1,0,13.07,12.986,12.986,0,0,1,13.042,0Z" transform="translate(905.025 129.563)" fill="#f3f3f3"/>
        <path id="Path_4288" data-name="Path 4288" d="M13.042,0A12.986,12.986,0,0,1,26.085,13.07a19.284,19.284,0,0,0,19.28,19.321,12.986,12.986,0,0,1,13.042,13.07,19.284,19.284,0,0,0,19.28,19.321,13.07,13.07,0,1,1-13.042,13.07,19.284,19.284,0,0,0-19.28-19.321,12.986,12.986,0,0,1-13.042-13.07A19.284,19.284,0,0,0,13.042,26.14,12.986,12.986,0,0,1,0,13.07,12.986,12.986,0,0,1,13.042,0Z" transform="translate(905.025 64.782)" fill="#f3f3f3"/>
        <path id="Path_4289" data-name="Path 4289" d="M13.042,0A12.986,12.986,0,0,1,26.085,13.07a19.284,19.284,0,0,0,19.28,19.321,12.986,12.986,0,0,1,13.042,13.07,19.284,19.284,0,0,0,19.28,19.321,13.07,13.07,0,1,1-13.042,13.07,19.284,19.284,0,0,0-19.28-19.321,12.986,12.986,0,0,1-13.042-13.07A19.284,19.284,0,0,0,13.042,26.14,12.986,12.986,0,0,1,0,13.07,12.986,12.986,0,0,1,13.042,0Z" transform="translate(905.025 0)" fill="#f3f3f3"/>
        <path id="Path_4290" data-name="Path 4290" d="M26.085,45.461A19.284,19.284,0,0,1,45.365,26.14,12.986,12.986,0,0,0,58.407,13.07a13.042,13.042,0,1,0-26.085,0,19.284,19.284,0,0,1-19.28,19.321,13.07,13.07,0,1,0,13.042,13.07Z" transform="translate(937.347 64.782)" fill="#f3f3f3"/>
        <path id="Path_4291" data-name="Path 4291" d="M77.687,0A12.986,12.986,0,0,0,64.645,13.07a19.284,19.284,0,0,1-19.28,19.321,12.986,12.986,0,0,0-13.042,13.07,19.284,19.284,0,0,1-19.28,19.321,13.07,13.07,0,1,0,13.042,13.07,19.284,19.284,0,0,1,19.28-19.321,12.986,12.986,0,0,0,13.042-13.07A19.284,19.284,0,0,1,77.687,26.14a13.07,13.07,0,0,0,0-26.14Z" transform="translate(905.025 0)" fill="#f3f3f3"/>
        <path id="Path_4292" data-name="Path 4292" d="M77.687,0A12.986,12.986,0,0,0,64.645,13.07a19.284,19.284,0,0,1-19.28,19.321,12.986,12.986,0,0,0-13.042,13.07,19.284,19.284,0,0,1-19.28,19.321,13.07,13.07,0,1,0,13.042,13.07,19.284,19.284,0,0,1,19.28-19.321,12.986,12.986,0,0,0,13.042-13.07A19.284,19.284,0,0,1,77.687,26.14a13.07,13.07,0,0,0,0-26.14Z" transform="translate(872.703 97.172)" fill="#f3f3f3"/>
        <path id="Path_4293" data-name="Path 4293" d="M77.687,0A12.986,12.986,0,0,0,64.645,13.07a19.284,19.284,0,0,1-19.28,19.321,12.986,12.986,0,0,0-13.042,13.07,19.284,19.284,0,0,1-19.28,19.321,13.07,13.07,0,1,0,13.042,13.07,19.284,19.284,0,0,1,19.28-19.321,12.986,12.986,0,0,0,13.042-13.07A19.284,19.284,0,0,1,77.687,26.14a13.07,13.07,0,0,0,0-26.14Z" transform="translate(872.703 161.954)" fill="#f3f3f3"/>
        <path id="Path_4294" data-name="Path 4294" d="M13.042,0A12.986,12.986,0,0,1,26.085,13.07a19.284,19.284,0,0,0,19.28,19.321,12.986,12.986,0,0,1,13.042,13.07,19.284,19.284,0,0,0,19.28,19.321,13.07,13.07,0,1,1-13.042,13.07,19.284,19.284,0,0,0-19.28-19.321,12.986,12.986,0,0,1-13.042-13.07A19.284,19.284,0,0,0,13.042,26.14,12.986,12.986,0,0,1,0,13.07,12.986,12.986,0,0,1,13.042,0Z" transform="translate(840.38 64.782)" fill="#f3f3f3"/>
        <path id="Path_4295" data-name="Path 4295" d="M13.042,0A12.986,12.986,0,0,1,26.085,13.07a19.284,19.284,0,0,0,19.28,19.321,12.986,12.986,0,0,1,13.042,13.07,19.284,19.284,0,0,0,19.28,19.321,13.07,13.07,0,1,1-13.042,13.07,19.284,19.284,0,0,0-19.28-19.321,12.986,12.986,0,0,1-13.042-13.07A19.284,19.284,0,0,0,13.042,26.14,12.986,12.986,0,0,1,0,13.07,12.986,12.986,0,0,1,13.042,0Z" transform="translate(840.38 0)" fill="#f3f3f3"/>
        <path id="Path_4296" data-name="Path 4296" d="M26.085,45.461A19.284,19.284,0,0,1,45.365,26.14,12.986,12.986,0,0,0,58.407,13.07a13.042,13.042,0,1,0-26.085,0,19.284,19.284,0,0,1-19.28,19.321,13.07,13.07,0,1,0,13.042,13.07Z" transform="translate(872.703 64.782)" fill="#f3f3f3"/>
        <path id="Path_4297" data-name="Path 4297" d="M77.687,0A12.986,12.986,0,0,0,64.645,13.07a19.284,19.284,0,0,1-19.28,19.321,12.986,12.986,0,0,0-13.042,13.07,19.284,19.284,0,0,1-19.28,19.321,13.07,13.07,0,1,0,13.042,13.07,19.284,19.284,0,0,1,19.28-19.321,12.986,12.986,0,0,0,13.042-13.07A19.284,19.284,0,0,1,77.687,26.14a13.07,13.07,0,0,0,0-26.14Z" transform="translate(840.38 0)" fill="#f3f3f3"/>
        <path id="Path_4298" data-name="Path 4298" d="M77.687,0A12.986,12.986,0,0,0,64.645,13.07a19.284,19.284,0,0,1-19.28,19.321,12.986,12.986,0,0,0-13.042,13.07,19.284,19.284,0,0,1-19.28,19.321,13.07,13.07,0,1,0,13.042,13.07,19.284,19.284,0,0,1,19.28-19.321,12.986,12.986,0,0,0,13.042-13.07A19.284,19.284,0,0,1,77.687,26.14a13.07,13.07,0,0,0,0-26.14Z" transform="translate(775.736 0)" fill="#f3f3f3"/>
        <path id="Path_4299" data-name="Path 4299" d="M77.687,0A12.986,12.986,0,0,0,64.645,13.07a19.284,19.284,0,0,1-19.28,19.321,12.986,12.986,0,0,0-13.042,13.07,19.284,19.284,0,0,1-19.28,19.321,13.07,13.07,0,1,0,13.042,13.07,19.284,19.284,0,0,1,19.28-19.321,12.986,12.986,0,0,0,13.042-13.07A19.284,19.284,0,0,1,77.687,26.14a13.07,13.07,0,0,0,0-26.14Z" transform="translate(808.058 97.172)" fill="#f3f3f3"/>
        <path id="Path_4300" data-name="Path 4300" d="M13.042,0A12.986,12.986,0,0,1,26.085,13.07a19.284,19.284,0,0,0,19.28,19.321,12.986,12.986,0,0,1,13.042,13.07,19.284,19.284,0,0,0,19.28,19.321,13.07,13.07,0,1,1-13.042,13.07,19.284,19.284,0,0,0-19.28-19.321,12.986,12.986,0,0,1-13.042-13.07A19.284,19.284,0,0,0,13.042,26.14,12.986,12.986,0,0,1,0,13.07,12.986,12.986,0,0,1,13.042,0Z" transform="translate(840.38 129.563)" fill="#f3f3f3"/>
        <path id="Path_4301" data-name="Path 4301" d="M77.687,0A12.986,12.986,0,0,0,64.645,13.07a19.284,19.284,0,0,1-19.28,19.321,12.986,12.986,0,0,0-13.042,13.07,19.284,19.284,0,0,1-19.28,19.321,13.07,13.07,0,1,0,13.042,13.07,19.284,19.284,0,0,1,19.28-19.321,12.986,12.986,0,0,0,13.042-13.07A19.284,19.284,0,0,1,77.687,26.14a13.07,13.07,0,0,0,0-26.14Z" transform="translate(808.058 161.954)" fill="#f3f3f3"/>
        <path id="Path_4302" data-name="Path 4302" d="M32.322,45.461A19.284,19.284,0,0,0,13.042,26.14,12.986,12.986,0,0,1,0,13.07a13.042,13.042,0,1,1,26.085,0,19.284,19.284,0,0,0,19.28,19.321,13.07,13.07,0,1,1-13.042,13.07Z" transform="translate(840.38 194.345)" fill="#f3f3f3"/>
        <path id="Path_4303" data-name="Path 4303" d="M13.042,0A12.986,12.986,0,0,1,26.085,13.07a19.284,19.284,0,0,0,19.28,19.321,12.986,12.986,0,0,1,13.042,13.07,19.284,19.284,0,0,0,19.28,19.321,13.07,13.07,0,1,1-13.042,13.07,19.284,19.284,0,0,0-19.28-19.321,12.986,12.986,0,0,1-13.042-13.07A19.284,19.284,0,0,0,13.042,26.14,12.986,12.986,0,0,1,0,13.07,12.986,12.986,0,0,1,13.042,0Z" transform="translate(775.736 129.563)" fill="#f3f3f3"/>
        <path id="Path_4304" data-name="Path 4304" d="M32.322,45.461A19.284,19.284,0,0,0,13.042,26.14,12.986,12.986,0,0,1,0,13.07a13.042,13.042,0,1,1,26.085,0,19.284,19.284,0,0,0,19.28,19.321,13.07,13.07,0,1,1-13.042,13.07Z" transform="translate(775.736 194.345)" fill="#f3f3f3"/>
        <path id="Path_4305" data-name="Path 4305" d="M13.042,0A12.986,12.986,0,0,1,26.085,13.07a19.284,19.284,0,0,0,19.28,19.321,12.986,12.986,0,0,1,13.042,13.07,19.284,19.284,0,0,0,19.28,19.321,13.07,13.07,0,1,1-13.042,13.07,19.284,19.284,0,0,0-19.28-19.321,12.986,12.986,0,0,1-13.042-13.07A19.284,19.284,0,0,0,13.042,26.14,12.986,12.986,0,0,1,0,13.07,12.986,12.986,0,0,1,13.042,0Z" transform="translate(711.091 129.563)" fill="#f3f3f3"/>
        <path id="Path_4306" data-name="Path 4306" d="M77.687,0A12.986,12.986,0,0,0,64.645,13.07a19.284,19.284,0,0,1-19.28,19.321,12.986,12.986,0,0,0-13.042,13.07,19.284,19.284,0,0,1-19.28,19.321,13.07,13.07,0,1,0,13.042,13.07,19.284,19.284,0,0,1,19.28-19.321,12.986,12.986,0,0,0,13.042-13.07A19.284,19.284,0,0,1,77.687,26.14a13.07,13.07,0,0,0,0-26.14Z" transform="translate(743.413 161.954)" fill="#f3f3f3"/>
        <path id="Path_4307" data-name="Path 4307" d="M13.042,0A12.986,12.986,0,0,1,26.085,13.07a19.284,19.284,0,0,0,19.28,19.321,12.986,12.986,0,0,1,13.042,13.07,19.284,19.284,0,0,0,19.28,19.321,13.07,13.07,0,1,1-13.042,13.07,19.284,19.284,0,0,0-19.28-19.321,12.986,12.986,0,0,1-13.042-13.07A19.284,19.284,0,0,0,13.042,26.14,12.986,12.986,0,0,1,0,13.07,12.986,12.986,0,0,1,13.042,0Z" transform="translate(775.736 0)" fill="#f3f3f3"/>
        <path id="Path_4308" data-name="Path 4308" d="M77.687,0A12.986,12.986,0,0,0,64.645,13.07a19.284,19.284,0,0,1-19.28,19.321,12.986,12.986,0,0,0-13.042,13.07,19.284,19.284,0,0,1-19.28,19.321,13.07,13.07,0,1,0,13.042,13.07,19.284,19.284,0,0,1,19.28-19.321,12.986,12.986,0,0,0,13.042-13.07A19.284,19.284,0,0,1,77.687,26.14a13.07,13.07,0,0,0,0-26.14Z" transform="translate(775.736 64.782)" fill="#f3f3f3"/>
        <path id="Path_4309" data-name="Path 4309" d="M13.042,0A12.986,12.986,0,0,1,26.085,13.07a19.284,19.284,0,0,0,19.28,19.321,12.986,12.986,0,0,1,13.042,13.07,19.284,19.284,0,0,0,19.28,19.321,13.07,13.07,0,1,1-13.042,13.07,19.284,19.284,0,0,0-19.28-19.321,12.986,12.986,0,0,1-13.042-13.07A19.284,19.284,0,0,0,13.042,26.14,12.986,12.986,0,0,1,0,13.07,12.986,12.986,0,0,1,13.042,0Z" transform="translate(711.091 0)" fill="#f3f3f3"/>
        <path id="Path_4310" data-name="Path 4310" d="M26.085,45.461A19.284,19.284,0,0,1,45.365,26.14,12.986,12.986,0,0,0,58.407,13.07a13.042,13.042,0,1,0-26.085,0,19.284,19.284,0,0,1-19.28,19.321,13.07,13.07,0,1,0,13.042,13.07Z" transform="translate(711.091 32.391)" fill="#f3f3f3"/>
        <path id="Path_4311" data-name="Path 4311" d="M13.042,0A12.986,12.986,0,0,1,26.085,13.07a19.284,19.284,0,0,0,19.28,19.321,12.986,12.986,0,0,1,13.042,13.07,19.284,19.284,0,0,0,19.28,19.321,13.07,13.07,0,1,1-13.042,13.07,19.284,19.284,0,0,0-19.28-19.321,12.986,12.986,0,0,1-13.042-13.07A19.284,19.284,0,0,0,13.042,26.14,12.986,12.986,0,0,1,0,13.07,12.986,12.986,0,0,1,13.042,0Z" transform="translate(711.091 64.782)" fill="#f3f3f3"/>
        <path id="Path_4312" data-name="Path 4312" d="M26.085,45.461A19.284,19.284,0,0,1,45.365,26.14,12.986,12.986,0,0,0,58.407,13.07a13.042,13.042,0,1,0-26.085,0,19.284,19.284,0,0,1-19.28,19.321,13.07,13.07,0,1,0,13.042,13.07Z" transform="translate(711.091 97.172)" fill="#f3f3f3"/>
        <path id="Path_4313" data-name="Path 4313" d="M13.042,0A12.986,12.986,0,0,1,26.085,13.07a19.284,19.284,0,0,0,19.28,19.321,12.986,12.986,0,0,1,13.042,13.07,19.284,19.284,0,0,0,19.28,19.321,13.07,13.07,0,1,1-13.042,13.07,19.284,19.284,0,0,0-19.28-19.321,12.986,12.986,0,0,1-13.042-13.07A19.284,19.284,0,0,0,13.042,26.14,12.986,12.986,0,0,1,0,13.07,12.986,12.986,0,0,1,13.042,0Z" transform="translate(646.446 0)" fill="#f3f3f3"/>
        <path id="Path_4314" data-name="Path 4314" d="M26.085,45.461A19.284,19.284,0,0,1,45.365,26.14,12.986,12.986,0,0,0,58.407,13.07a13.042,13.042,0,1,0-26.085,0,19.284,19.284,0,0,1-19.28,19.321,13.07,13.07,0,1,0,13.042,13.07Z" transform="translate(711.091 161.954)" fill="#f3f3f3"/>
        <path id="Path_4315" data-name="Path 4315" d="M13.042,0A12.986,12.986,0,0,1,26.085,13.07a19.284,19.284,0,0,0,19.28,19.321,12.986,12.986,0,0,1,13.042,13.07,19.284,19.284,0,0,0,19.28,19.321,13.07,13.07,0,1,1-13.042,13.07,19.284,19.284,0,0,0-19.28-19.321,12.986,12.986,0,0,1-13.042-13.07A19.284,19.284,0,0,0,13.042,26.14,12.986,12.986,0,0,1,0,13.07,12.986,12.986,0,0,1,13.042,0Z" transform="translate(678.768 161.954)" fill="#f3f3f3"/>
        <path id="Path_4316" data-name="Path 4316" d="M13.042,0A12.986,12.986,0,0,1,26.085,13.07a19.284,19.284,0,0,0,19.28,19.321,12.986,12.986,0,0,1,13.042,13.07,19.284,19.284,0,0,0,19.28,19.321,13.07,13.07,0,1,1-13.042,13.07,19.284,19.284,0,0,0-19.28-19.321,12.986,12.986,0,0,1-13.042-13.07A19.284,19.284,0,0,0,13.042,26.14,12.986,12.986,0,0,1,0,13.07,12.986,12.986,0,0,1,13.042,0Z" transform="translate(614.124 161.954)" fill="#f3f3f3"/>
        <path id="Path_4317" data-name="Path 4317" d="M13.042,0A12.986,12.986,0,0,1,26.085,13.07a19.284,19.284,0,0,0,19.28,19.321,12.986,12.986,0,0,1,13.042,13.07,19.284,19.284,0,0,0,19.28,19.321,13.07,13.07,0,1,1-13.042,13.07,19.284,19.284,0,0,0-19.28-19.321,12.986,12.986,0,0,1-13.042-13.07A19.284,19.284,0,0,0,13.042,26.14,12.986,12.986,0,0,1,0,13.07,12.986,12.986,0,0,1,13.042,0Z" transform="translate(646.446 64.782)" fill="#f3f3f3"/>
        <path id="Path_4318" data-name="Path 4318" d="M26.085,45.461A19.284,19.284,0,0,1,45.365,26.14,12.986,12.986,0,0,0,58.407,13.07a13.042,13.042,0,1,0-26.085,0,19.284,19.284,0,0,1-19.28,19.321,13.07,13.07,0,1,0,13.042,13.07Z" transform="translate(646.106 32.391)" fill="#f3f3f3"/>
        <path id="Path_4319" data-name="Path 4319" d="M13.042,0A12.986,12.986,0,0,1,26.085,13.07a19.284,19.284,0,0,0,19.28,19.321,12.986,12.986,0,0,1,13.042,13.07,19.284,19.284,0,0,0,19.28,19.321,13.07,13.07,0,1,1-13.042,13.07,19.284,19.284,0,0,0-19.28-19.321,12.986,12.986,0,0,1-13.042-13.07A19.284,19.284,0,0,0,13.042,26.14,12.986,12.986,0,0,1,0,13.07,12.986,12.986,0,0,1,13.042,0Z" transform="translate(614.124 97.172)" fill="#f3f3f3"/>
        <path id="Path_4320" data-name="Path 4320" d="M26.085,45.461A19.284,19.284,0,0,1,45.365,26.14,12.986,12.986,0,0,0,58.407,13.07a13.042,13.042,0,1,0-26.085,0,19.284,19.284,0,0,1-19.28,19.321,13.07,13.07,0,1,0,13.042,13.07Z" transform="translate(646.446 161.954)" fill="#f3f3f3"/>
        <path id="Path_4321" data-name="Path 4321" d="M13.042,0A12.986,12.986,0,0,1,26.085,13.07a19.284,19.284,0,0,0,19.28,19.321,12.986,12.986,0,0,1,13.042,13.07,19.284,19.284,0,0,0,19.28,19.321,13.07,13.07,0,1,1-13.042,13.07,19.284,19.284,0,0,0-19.28-19.321,12.986,12.986,0,0,1-13.042-13.07A19.284,19.284,0,0,0,13.042,26.14,12.986,12.986,0,0,1,0,13.07,12.986,12.986,0,0,1,13.042,0Z" transform="translate(549.479 161.954)" fill="#f3f3f3"/>
        <path id="Path_4322" data-name="Path 4322" d="M77.687,0A12.986,12.986,0,0,0,64.645,13.07a19.284,19.284,0,0,1-19.28,19.321,12.986,12.986,0,0,0-13.042,13.07,19.284,19.284,0,0,1-19.28,19.321,13.07,13.07,0,1,0,13.042,13.07,19.284,19.284,0,0,1,19.28-19.321,12.986,12.986,0,0,0,13.042-13.07A19.284,19.284,0,0,1,77.687,26.14a13.07,13.07,0,0,0,0-26.14Z" transform="translate(549.479 161.954)" fill="#f3f3f3"/>
        <path id="Path_4323" data-name="Path 4323" d="M77.687,0A12.986,12.986,0,0,0,64.645,13.07a19.284,19.284,0,0,1-19.28,19.321,12.986,12.986,0,0,0-13.042,13.07,19.284,19.284,0,0,1-19.28,19.321,13.07,13.07,0,1,0,13.042,13.07,19.284,19.284,0,0,1,19.28-19.321,12.986,12.986,0,0,0,13.042-13.07A19.284,19.284,0,0,1,77.687,26.14a13.07,13.07,0,0,0,0-26.14Z" transform="translate(549.479 97.172)" fill="#f3f3f3"/>
        <path id="Path_4324" data-name="Path 4324" d="M13.042,0A12.986,12.986,0,0,1,26.085,13.07a19.284,19.284,0,0,0,19.28,19.321,12.986,12.986,0,0,1,13.042,13.07,19.284,19.284,0,0,0,19.28,19.321,13.07,13.07,0,1,1-13.042,13.07,19.284,19.284,0,0,0-19.28-19.321,12.986,12.986,0,0,1-13.042-13.07A19.284,19.284,0,0,0,13.042,26.14,12.986,12.986,0,0,1,0,13.07,12.986,12.986,0,0,1,13.042,0Z" transform="translate(549.479 32.391)" fill="#f3f3f3"/>
        <path id="Path_4325" data-name="Path 4325" d="M13.042,0A12.986,12.986,0,0,1,26.085,13.07a19.284,19.284,0,0,0,19.28,19.321,12.986,12.986,0,0,1,13.042,13.07,19.284,19.284,0,0,0,19.28,19.321,13.07,13.07,0,1,1-13.042,13.07,19.284,19.284,0,0,0-19.28-19.321,12.986,12.986,0,0,1-13.042-13.07A19.284,19.284,0,0,0,13.042,26.14,12.986,12.986,0,0,1,0,13.07,12.986,12.986,0,0,1,13.042,0Z" transform="translate(581.802 0)" fill="#f3f3f3"/>
        <path id="Path_4326" data-name="Path 4326" d="M77.687,0A12.986,12.986,0,0,0,64.645,13.07a19.284,19.284,0,0,1-19.28,19.321,12.986,12.986,0,0,0-13.042,13.07,19.284,19.284,0,0,1-19.28,19.321,13.07,13.07,0,1,0,13.042,13.07,19.284,19.284,0,0,1,19.28-19.321,12.986,12.986,0,0,0,13.042-13.07A19.284,19.284,0,0,1,77.687,26.14a13.07,13.07,0,0,0,0-26.14Z" transform="translate(549.479 32.391)" fill="#f3f3f3"/>
        <path id="Path_4327" data-name="Path 4327" d="M77.687,0A12.986,12.986,0,0,0,64.645,13.07a19.284,19.284,0,0,1-19.28,19.321,12.986,12.986,0,0,0-13.042,13.07,19.284,19.284,0,0,1-19.28,19.321,13.07,13.07,0,1,0,13.042,13.07,19.284,19.284,0,0,1,19.28-19.321,12.986,12.986,0,0,0,13.042-13.07A19.284,19.284,0,0,1,77.687,26.14a13.07,13.07,0,0,0,0-26.14Z" transform="translate(484.835 161.954)" fill="#f3f3f3"/>
        <path id="Path_4328" data-name="Path 4328" d="M77.687,64.782a19.321,19.321,0,0,1,0-38.642A12.986,12.986,0,0,0,90.729,13.07a13.042,13.042,0,1,0-26.085,0,19.284,19.284,0,0,1-19.28,19.321,12.986,12.986,0,0,0-13.042,13.07,19.284,19.284,0,0,1-19.28,19.321,13.07,13.07,0,1,0,13.042,13.07,19.28,19.28,0,1,1,38.56,0,13.042,13.042,0,1,0,13.042-13.07Z" transform="translate(452.513 129.563)" fill="#f3f3f3"/>
        <path id="Path_4329" data-name="Path 4329" d="M32.322,45.461A19.284,19.284,0,0,0,13.042,26.14,12.986,12.986,0,0,1,0,13.07a13.042,13.042,0,1,1,26.085,0,19.284,19.284,0,0,0,19.28,19.321,13.07,13.07,0,1,1-13.042,13.07Z" transform="translate(484.835 97.172)" fill="#f3f3f3"/>
        <path id="Path_4330" data-name="Path 4330" d="M26.085,45.461A19.284,19.284,0,0,1,45.365,26.14,12.986,12.986,0,0,0,58.407,13.07a13.042,13.042,0,1,0-26.085,0,19.284,19.284,0,0,1-19.28,19.321,13.07,13.07,0,1,0,13.042,13.07Z" transform="translate(517.157 97.172)" fill="#f3f3f3"/>
        <path id="Path_4331" data-name="Path 4331" d="M77.687,0A12.986,12.986,0,0,0,64.645,13.07a19.284,19.284,0,0,1-19.28,19.321,12.986,12.986,0,0,0-13.042,13.07,19.284,19.284,0,0,1-19.28,19.321,13.07,13.07,0,1,0,13.042,13.07,19.284,19.284,0,0,1,19.28-19.321,12.986,12.986,0,0,0,13.042-13.07A19.284,19.284,0,0,1,77.687,26.14a13.07,13.07,0,0,0,0-26.14Z" transform="translate(517.157 0)" fill="#f3f3f3"/>
        <path id="Path_4332" data-name="Path 4332" d="M32.322,45.461A19.284,19.284,0,0,0,13.042,26.14,12.986,12.986,0,0,1,0,13.07a13.042,13.042,0,1,1,26.085,0,19.284,19.284,0,0,0,19.28,19.321,13.07,13.07,0,1,1-13.042,13.07Z" transform="translate(484.835 32.391)" fill="#f3f3f3"/>
        <path id="Path_4333" data-name="Path 4333" d="M26.085,45.461A19.284,19.284,0,0,1,45.365,26.14,12.986,12.986,0,0,0,58.407,13.07a13.042,13.042,0,1,0-26.085,0,19.284,19.284,0,0,1-19.28,19.321,13.07,13.07,0,1,0,13.042,13.07Z" transform="translate(484.835 64.782)" fill="#f3f3f3"/>
        <path id="Path_4334" data-name="Path 4334" d="M77.687,0A12.986,12.986,0,0,0,64.645,13.07a19.284,19.284,0,0,1-19.28,19.321,12.986,12.986,0,0,0-13.042,13.07,19.284,19.284,0,0,1-19.28,19.321,13.07,13.07,0,1,0,13.042,13.07,19.284,19.284,0,0,1,19.28-19.321,12.986,12.986,0,0,0,13.042-13.07A19.284,19.284,0,0,1,77.687,26.14a13.07,13.07,0,0,0,0-26.14Z" transform="translate(420.19 97.172)" fill="#f3f3f3"/>
        <path id="Path_4335" data-name="Path 4335" d="M32.322,45.461A19.284,19.284,0,0,0,13.042,26.14,12.986,12.986,0,0,1,0,13.07a13.042,13.042,0,1,1,26.085,0,19.284,19.284,0,0,0,19.28,19.321,13.07,13.07,0,1,1-13.042,13.07Z" transform="translate(420.19 161.954)" fill="#f3f3f3"/>
        <path id="Path_4336" data-name="Path 4336" d="M77.687,0A12.986,12.986,0,0,0,64.645,13.07a19.284,19.284,0,0,1-19.28,19.321,12.986,12.986,0,0,0-13.042,13.07,19.284,19.284,0,0,1-19.28,19.321,13.07,13.07,0,1,0,13.042,13.07,19.284,19.284,0,0,1,19.28-19.321,12.986,12.986,0,0,0,13.042-13.07A19.284,19.284,0,0,1,77.687,26.14a13.07,13.07,0,0,0,0-26.14Z" transform="translate(355.546 161.954)" fill="#f3f3f3"/>
        <path id="Path_4337" data-name="Path 4337" d="M77.687,0A12.986,12.986,0,0,0,64.645,13.07a19.284,19.284,0,0,1-19.28,19.321,12.986,12.986,0,0,0-13.042,13.07,19.284,19.284,0,0,1-19.28,19.321,13.07,13.07,0,1,0,13.042,13.07,19.284,19.284,0,0,1,19.28-19.321,12.986,12.986,0,0,0,13.042-13.07A19.284,19.284,0,0,1,77.687,26.14a13.07,13.07,0,0,0,0-26.14Z" transform="translate(517.157 259.126)" fill="#f3f3f3"/>
        <path id="Path_4338" data-name="Path 4338" d="M32.322,45.461A19.284,19.284,0,0,0,13.042,26.14,12.986,12.986,0,0,1,0,13.07a13.042,13.042,0,1,1,26.085,0,19.284,19.284,0,0,0,19.28,19.321,13.07,13.07,0,1,1-13.042,13.07Z" transform="translate(420.19 97.172)" fill="#f3f3f3"/>
        <path id="Path_4339" data-name="Path 4339" d="M32.322,45.461A19.284,19.284,0,0,0,13.042,26.14,12.986,12.986,0,0,1,0,13.07a13.042,13.042,0,1,1,26.085,0,19.284,19.284,0,0,0,19.28,19.321,13.07,13.07,0,1,1-13.042,13.07Z" transform="translate(355.546 161.954)" fill="#f3f3f3"/>
        <path id="Path_4340" data-name="Path 4340" d="M13.042,0A12.986,12.986,0,0,1,26.085,13.07a19.284,19.284,0,0,0,19.28,19.321,12.986,12.986,0,0,1,13.042,13.07,19.284,19.284,0,0,0,19.28,19.321,13.07,13.07,0,1,1-13.042,13.07,19.284,19.284,0,0,0-19.28-19.321,12.986,12.986,0,0,1-13.042-13.07A19.284,19.284,0,0,0,13.042,26.14,12.986,12.986,0,0,1,0,13.07,12.986,12.986,0,0,1,13.042,0Z" transform="translate(323.223 194.345)" fill="#f3f3f3"/>
        <path id="Path_4341" data-name="Path 4341" d="M13.042,0A12.986,12.986,0,0,1,26.085,13.07a19.284,19.284,0,0,0,19.28,19.321,12.986,12.986,0,0,1,13.042,13.07,19.284,19.284,0,0,0,19.28,19.321,13.07,13.07,0,1,1-13.042,13.07,19.284,19.284,0,0,0-19.28-19.321,12.986,12.986,0,0,1-13.042-13.07A19.284,19.284,0,0,0,13.042,26.14,12.986,12.986,0,0,1,0,13.07,12.986,12.986,0,0,1,13.042,0Z" transform="translate(387.868 259.126)" fill="#f3f3f3"/>
        <path id="Union_18" data-name="Union 18" d="M96.967,110.243a19.284,19.284,0,0,0-19.28-19.321,12.985,12.985,0,0,1-13.042-13.07,19.28,19.28,0,1,0-19.28,19.32,13.07,13.07,0,1,1-13.043,13.07A19.284,19.284,0,0,0,13.043,90.922a13.07,13.07,0,0,1,0-26.14,19.321,19.321,0,0,0,0-38.641A12.986,12.986,0,0,1,0,13.07a13.042,13.042,0,1,1,26.085,0,19.285,19.285,0,0,0,19.28,19.321,12.986,12.986,0,0,1,13.043,13.07A19.284,19.284,0,0,0,77.687,64.782a12.986,12.986,0,0,1,13.043,13.07,19.284,19.284,0,0,0,19.28,19.32,13.07,13.07,0,1,1-13.043,13.07Z" transform="translate(96.967 226.735)" fill="#f3f3f3"/>
        <path id="Path_4345" data-name="Path 4345" d="M13.042,0A12.986,12.986,0,0,1,26.085,13.07a19.284,19.284,0,0,0,19.28,19.321,12.986,12.986,0,0,1,13.042,13.07,19.284,19.284,0,0,0,19.28,19.321,13.07,13.07,0,1,1-13.042,13.07,19.284,19.284,0,0,0-19.28-19.321,12.986,12.986,0,0,1-13.042-13.07A19.284,19.284,0,0,0,13.042,26.14,12.986,12.986,0,0,1,0,13.07,12.986,12.986,0,0,1,13.042,0Z" transform="translate(258.579 129.563)" fill="#f3f3f3"/>
        <path id="Path_4346" data-name="Path 4346" d="M13.042,0A12.986,12.986,0,0,1,26.085,13.07a19.284,19.284,0,0,0,19.28,19.321,12.986,12.986,0,0,1,13.042,13.07,19.284,19.284,0,0,0,19.28,19.321,13.07,13.07,0,1,1-13.042,13.07,19.284,19.284,0,0,0-19.28-19.321,12.986,12.986,0,0,1-13.042-13.07A19.284,19.284,0,0,0,13.042,26.14,12.986,12.986,0,0,1,0,13.07,12.986,12.986,0,0,1,13.042,0Z" transform="translate(226.256 161.954)" fill="#f3f3f3"/>
        <path id="Path_4347" data-name="Path 4347" d="M26.085,45.461A19.284,19.284,0,0,1,45.365,26.14,12.986,12.986,0,0,0,58.407,13.07a13.042,13.042,0,1,0-26.085,0,19.284,19.284,0,0,1-19.28,19.321,13.07,13.07,0,1,0,13.042,13.07Z" transform="translate(258.579 161.954)" fill="#f3f3f3"/>
        <path id="Path_4348" data-name="Path 4348" d="M26.085,45.461A19.284,19.284,0,0,1,45.365,26.14,12.986,12.986,0,0,0,58.407,13.07a13.042,13.042,0,1,0-26.085,0,19.284,19.284,0,0,1-19.28,19.321,13.07,13.07,0,1,0,13.042,13.07Z" transform="translate(452.513 291.517)" fill="#f3f3f3"/>
        <path id="Path_4349" data-name="Path 4349" d="M32.322,45.461A19.284,19.284,0,0,0,13.042,26.14,12.986,12.986,0,0,1,0,13.07a13.042,13.042,0,1,1,26.085,0,19.284,19.284,0,0,0,19.28,19.321,13.07,13.07,0,1,1-13.042,13.07Z" transform="translate(290.901 97.172)" fill="#f3f3f3"/>
        <path id="Path_4350" data-name="Path 4350" d="M32.322,45.461A19.284,19.284,0,0,0,13.042,26.14,12.986,12.986,0,0,1,0,13.07a13.042,13.042,0,1,1,26.085,0,19.284,19.284,0,0,0,19.28,19.321,13.07,13.07,0,1,1-13.042,13.07Z" transform="translate(452.513 259.126)" fill="#f3f3f3"/>
        <path id="Path_4351" data-name="Path 4351" d="M26.085,45.461A19.284,19.284,0,0,1,45.365,26.14,12.986,12.986,0,0,0,58.407,13.07a13.042,13.042,0,1,0-26.085,0,19.284,19.284,0,0,1-19.28,19.321,13.07,13.07,0,1,0,13.042,13.07Z" transform="translate(581.802 291.517)" fill="#f3f3f3"/>
        <path id="Path_4352" data-name="Path 4352" d="M13.042,0A12.986,12.986,0,0,1,26.085,13.07a19.284,19.284,0,0,0,19.28,19.321,12.986,12.986,0,0,1,13.042,13.07,19.284,19.284,0,0,0,19.28,19.321,13.07,13.07,0,1,1-13.042,13.07,19.284,19.284,0,0,0-19.28-19.321,12.986,12.986,0,0,1-13.042-13.07A19.284,19.284,0,0,0,13.042,26.14,12.986,12.986,0,0,1,0,13.07,12.986,12.986,0,0,1,13.042,0Z" transform="translate(581.802 259.126)" fill="#f3f3f3"/>
        <path id="Path_4353" data-name="Path 4353" d="M26.085,45.461A19.284,19.284,0,0,1,45.365,26.14,12.986,12.986,0,0,0,58.407,13.07a13.042,13.042,0,1,0-26.085,0,19.284,19.284,0,0,1-19.28,19.321,13.07,13.07,0,1,0,13.042,13.07Z" transform="translate(646.446 291.517)" fill="#f3f3f3"/>
        <path id="Path_4354" data-name="Path 4354" d="M32.322,45.461A19.284,19.284,0,0,0,13.042,26.14,12.986,12.986,0,0,1,0,13.07a13.042,13.042,0,1,1,26.085,0,19.284,19.284,0,0,0,19.28,19.321,13.07,13.07,0,1,1-13.042,13.07Z" transform="translate(678.768 291.517)" fill="#f3f3f3"/>
        <path id="Path_4355" data-name="Path 4355" d="M32.322,45.461A19.284,19.284,0,0,0,13.042,26.14,12.986,12.986,0,0,1,0,13.07a13.042,13.042,0,1,1,26.085,0,19.284,19.284,0,0,0,19.28,19.321,13.07,13.07,0,1,1-13.042,13.07Z" transform="translate(549.479 97.172)" fill="#f3f3f3"/>
        <g id="Group_1312" data-name="Group 1312" transform="translate(711.091 259.126)">
          <path id="Path_4356" data-name="Path 4356" d="M26.085,45.461A19.284,19.284,0,0,1,45.365,26.14,12.986,12.986,0,0,0,58.407,13.07a13.042,13.042,0,1,0-26.085,0,19.284,19.284,0,0,1-19.28,19.321,13.07,13.07,0,1,0,13.042,13.07Z" transform="translate(0 32.391)" fill="#f3f3f3"/>
          <g id="Group_1311" data-name="Group 1311" transform="translate(0)">
            <path id="Path_4357" data-name="Path 4357" d="M13.042,0A12.986,12.986,0,0,1,26.085,13.07a19.284,19.284,0,0,0,19.28,19.321,12.986,12.986,0,0,1,13.042,13.07,19.284,19.284,0,0,0,19.28,19.321,13.07,13.07,0,1,1-13.042,13.07,19.284,19.284,0,0,0-19.28-19.321,12.986,12.986,0,0,1-13.042-13.07A19.284,19.284,0,0,0,13.042,26.14,12.986,12.986,0,0,1,0,13.07,12.986,12.986,0,0,1,13.042,0Z" fill="#f3f3f3"/>
            <path id="Path_4358" data-name="Path 4358" d="M26.085,45.461A19.284,19.284,0,0,1,45.365,26.14,12.986,12.986,0,0,0,58.407,13.07a13.042,13.042,0,1,0-26.085,0,19.284,19.284,0,0,1-19.28,19.321,13.07,13.07,0,1,0,13.042,13.07Z" transform="translate(64.645 32.391)" fill="#f3f3f3"/>
            <path id="Path_4359" data-name="Path 4359" d="M32.322,45.461A19.284,19.284,0,0,0,13.042,26.14,12.986,12.986,0,0,1,0,13.07a13.042,13.042,0,1,1,26.085,0,19.284,19.284,0,0,0,19.28,19.321,13.07,13.07,0,1,1-13.042,13.07Z" transform="translate(64.645 0)" fill="#f3f3f3"/>
          </g>
        </g>
        <g id="Group_1315" data-name="Group 1315" transform="translate(808.058 259.126)">
          <path id="Path_4360" data-name="Path 4360" d="M32.322,45.461A19.284,19.284,0,0,0,13.042,26.14,12.986,12.986,0,0,1,0,13.07a13.042,13.042,0,1,1,26.085,0,19.284,19.284,0,0,0,19.28,19.321,13.07,13.07,0,1,1-13.042,13.07Z" transform="translate(0 32.391)" fill="#f3f3f3"/>
          <g id="Group_1314" data-name="Group 1314" transform="translate(32.322)">
            <path id="Path_4361" data-name="Path 4361" d="M26.085,45.461A19.284,19.284,0,0,1,45.365,26.14,12.986,12.986,0,0,0,58.407,13.07a13.042,13.042,0,1,0-26.085,0,19.284,19.284,0,0,1-19.28,19.321,13.07,13.07,0,1,0,13.042,13.07Z" transform="translate(0 32.391)" fill="#f3f3f3"/>
            <g id="Group_1313" data-name="Group 1313" transform="translate(0)">
              <path id="Path_4362" data-name="Path 4362" d="M13.042,0A12.986,12.986,0,0,1,26.085,13.07a19.284,19.284,0,0,0,19.28,19.321,12.986,12.986,0,0,1,13.042,13.07,19.284,19.284,0,0,0,19.28,19.321,13.07,13.07,0,1,1-13.042,13.07,19.284,19.284,0,0,0-19.28-19.321,12.986,12.986,0,0,1-13.042-13.07A19.284,19.284,0,0,0,13.042,26.14,12.986,12.986,0,0,1,0,13.07,12.986,12.986,0,0,1,13.042,0Z" fill="#f3f3f3"/>
              <path id="Path_4363" data-name="Path 4363" d="M26.085,45.461A19.284,19.284,0,0,1,45.365,26.14,12.986,12.986,0,0,0,58.407,13.07a13.042,13.042,0,1,0-26.085,0,19.284,19.284,0,0,1-19.28,19.321,13.07,13.07,0,1,0,13.042,13.07Z" transform="translate(64.645 32.391)" fill="#f3f3f3"/>
              <path id="Path_4364" data-name="Path 4364" d="M32.322,45.461A19.284,19.284,0,0,0,13.042,26.14,12.986,12.986,0,0,1,0,13.07a13.042,13.042,0,1,1,26.085,0,19.284,19.284,0,0,0,19.28,19.321,13.07,13.07,0,1,1-13.042,13.07Z" transform="translate(64.645 0)" fill="#f3f3f3"/>
            </g>
          </g>
        </g>
        <path id="Path_4365" data-name="Path 4365" d="M32.322,45.461A19.284,19.284,0,0,0,13.042,26.14,12.986,12.986,0,0,1,0,13.07a13.042,13.042,0,1,1,26.085,0,19.284,19.284,0,0,0,19.28,19.321,13.07,13.07,0,1,1-13.042,13.07Z" transform="translate(937.347 291.517)" fill="#f3f3f3"/>
        <path id="Path_4366" data-name="Path 4366" d="M26.085,45.461A19.284,19.284,0,0,1,45.365,26.14,12.986,12.986,0,0,0,58.407,13.07a13.042,13.042,0,1,0-26.085,0,19.284,19.284,0,0,1-19.28,19.321,13.07,13.07,0,1,0,13.042,13.07Z" transform="translate(969.669 291.517)" fill="#f3f3f3"/>
        <path id="Path_4367" data-name="Path 4367" d="M13.042,0A12.986,12.986,0,0,1,26.085,13.07a19.284,19.284,0,0,0,19.28,19.321,12.986,12.986,0,0,1,13.042,13.07,19.284,19.284,0,0,0,19.28,19.321,13.07,13.07,0,1,1-13.042,13.07,19.284,19.284,0,0,0-19.28-19.321,12.986,12.986,0,0,1-13.042-13.07A19.284,19.284,0,0,0,13.042,26.14,12.986,12.986,0,0,1,0,13.07,12.986,12.986,0,0,1,13.042,0Z" transform="translate(969.669 259.126)" fill="#f3f3f3"/>
        <path id="Path_4368" data-name="Path 4368" d="M26.085,45.461A19.284,19.284,0,0,1,45.365,26.14,12.986,12.986,0,0,0,58.407,13.07a13.042,13.042,0,1,0-26.085,0,19.284,19.284,0,0,1-19.28,19.321,13.07,13.07,0,1,0,13.042,13.07Z" transform="translate(1034.314 291.517)" fill="#f3f3f3"/>
        <path id="Path_4369" data-name="Path 4369" d="M26.085,45.461A19.284,19.284,0,0,1,45.365,26.14,12.986,12.986,0,0,0,58.407,13.07a13.042,13.042,0,1,0-26.085,0,19.284,19.284,0,0,1-19.28,19.321,13.07,13.07,0,1,0,13.042,13.07Z" transform="translate(1001.992 259.126)" fill="#f3f3f3"/>
        <path id="Path_4370" data-name="Path 4370" d="M26.085,45.461A19.284,19.284,0,0,1,45.365,26.14,12.986,12.986,0,0,0,58.407,13.07a13.042,13.042,0,1,0-26.085,0,19.284,19.284,0,0,1-19.28,19.321,13.07,13.07,0,1,0,13.042,13.07Z" transform="translate(937.347 259.126)" fill="#f3f3f3"/>
        <path id="Path_4371" data-name="Path 4371" d="M26.085,45.461A19.284,19.284,0,0,1,45.365,26.14,12.986,12.986,0,0,0,58.407,13.07a13.042,13.042,0,1,0-26.085,0,19.284,19.284,0,0,1-19.28,19.321,13.07,13.07,0,1,0,13.042,13.07Z" transform="translate(872.703 259.126)" fill="#f3f3f3"/>
        <path id="Path_4372" data-name="Path 4372" d="M26.085,45.461A19.284,19.284,0,0,1,45.365,26.14,12.986,12.986,0,0,0,58.407,13.07a13.042,13.042,0,1,0-26.085,0,19.284,19.284,0,0,1-19.28,19.321,13.07,13.07,0,1,0,13.042,13.07Z" transform="translate(1066.636 259.126)" fill="#f3f3f3"/>
        <path id="Path_4373" data-name="Path 4373" d="M32.322,45.461A19.284,19.284,0,0,0,13.042,26.14,12.986,12.986,0,0,1,0,13.07a13.042,13.042,0,1,1,26.085,0,19.284,19.284,0,0,0,19.28,19.321,13.07,13.07,0,1,1-13.043,13.07Z" transform="translate(1034.314 259.126)" fill="#f3f3f3"/>
        <path id="Path_4374" data-name="Path 4374" d="M32.322,45.461A19.284,19.284,0,0,0,13.042,26.14,12.986,12.986,0,0,1,0,13.07a13.042,13.042,0,1,1,26.085,0,19.284,19.284,0,0,0,19.28,19.321,13.07,13.07,0,1,1-13.042,13.07Z" transform="translate(1066.636 291.517)" fill="#f3f3f3"/>
        <path id="Path_4375" data-name="Path 4375" d="M32.322,45.461A19.284,19.284,0,0,0,13.042,26.14,12.986,12.986,0,0,1,0,13.07a13.042,13.042,0,1,1,26.085,0,19.284,19.284,0,0,0,19.28,19.321,13.07,13.07,0,1,1-13.042,13.07Z" transform="translate(484.835 291.517)" fill="#f3f3f3"/>
        <path id="Path_4376" data-name="Path 4376" d="M32.322,45.461A19.284,19.284,0,0,0,13.042,26.14,12.986,12.986,0,0,1,0,13.07a13.042,13.042,0,1,1,26.085,0,19.284,19.284,0,0,0,19.28,19.321,13.07,13.07,0,1,1-13.042,13.07Z" transform="translate(258.579 259.126)" fill="#f3f3f3"/>
        <path id="Path_4377" data-name="Path 4377" d="M13.042,0A12.986,12.986,0,0,1,26.085,13.07a19.284,19.284,0,0,0,19.28,19.321,12.986,12.986,0,0,1,13.042,13.07,19.284,19.284,0,0,0,19.28,19.321,13.07,13.07,0,1,1-13.042,13.07,19.284,19.284,0,0,0-19.28-19.321,12.986,12.986,0,0,1-13.042-13.07A19.284,19.284,0,0,0,13.042,26.14,12.986,12.986,0,0,1,0,13.07,12.986,12.986,0,0,1,13.042,0Z" transform="translate(323.223 64.782)" fill="#f3f3f3"/>
        <path id="Path_4378" data-name="Path 4378" d="M32.322,45.461A19.284,19.284,0,0,0,13.042,26.14,12.986,12.986,0,0,1,0,13.07a13.042,13.042,0,1,1,26.085,0,19.284,19.284,0,0,0,19.28,19.321,13.07,13.07,0,1,1-13.042,13.07Z" transform="translate(420.19 32.391)" fill="#f3f3f3"/>
        <path id="Path_4379" data-name="Path 4379" d="M26.085,45.461A19.284,19.284,0,0,1,45.365,26.14,13.07,13.07,0,1,0,32.322,13.07a19.284,19.284,0,0,1-19.28,19.321,13.07,13.07,0,1,0,13.042,13.07Z" transform="translate(420.19 0)" fill="#f3f3f3"/>
        <path id="Path_4380" data-name="Path 4380" d="M77.687,0A12.986,12.986,0,0,0,64.645,13.07a19.284,19.284,0,0,1-19.28,19.321,12.986,12.986,0,0,0-13.042,13.07,19.284,19.284,0,0,1-19.28,19.321,13.07,13.07,0,1,0,13.042,13.07,19.284,19.284,0,0,1,19.28-19.321,12.986,12.986,0,0,0,13.042-13.07A19.284,19.284,0,0,1,77.687,26.14a13.07,13.07,0,0,0,0-26.14Z" transform="translate(355.546 32.391)" fill="#f3f3f3"/>
        <path id="Path_4381" data-name="Path 4381" d="M32.322,45.461A19.284,19.284,0,0,0,13.042,26.14,12.986,12.986,0,0,1,0,13.07a13.042,13.042,0,1,1,26.085,0,19.284,19.284,0,0,0,19.28,19.321,13.07,13.07,0,1,1-13.042,13.07Z" transform="translate(355.546 32.391)" fill="#f3f3f3"/>
        <path id="Path_4382" data-name="Path 4382" d="M206.976,0a12.986,12.986,0,0,0-13.042,13.07,19.284,19.284,0,0,1-19.28,19.321,12.986,12.986,0,0,0-13.042,13.07,19.284,19.284,0,0,1-19.28,19.321,12.986,12.986,0,0,0-13.042,13.07,19.284,19.284,0,0,1-19.28,19.321,12.986,12.986,0,0,0-13.042,13.07,19.284,19.284,0,0,1-19.28,19.321,12.986,12.986,0,0,0-13.042,13.07,19.284,19.284,0,0,1-19.28,19.321,12.986,12.986,0,0,0-13.042,13.07,19.284,19.284,0,0,1-19.28,19.321,13.07,13.07,0,1,0,13.042,13.07,19.284,19.284,0,0,1,19.28-19.321,12.986,12.986,0,0,0,13.042-13.07A19.284,19.284,0,0,1,77.687,155.7a12.986,12.986,0,0,0,13.042-13.07,19.284,19.284,0,0,1,19.28-19.321,12.986,12.986,0,0,0,13.042-13.07,19.284,19.284,0,0,1,19.28-19.321,12.986,12.986,0,0,0,13.042-13.07,19.284,19.284,0,0,1,19.28-19.321A12.986,12.986,0,0,0,187.7,45.461a19.284,19.284,0,0,1,19.28-19.321,13.07,13.07,0,0,0,0-26.14Z" transform="translate(193.934)" fill="#f3f3f3"/>
        <path id="Path_4383" data-name="Path 4383" d="M206.976,0a12.986,12.986,0,0,0-13.042,13.07,19.284,19.284,0,0,1-19.28,19.321,12.986,12.986,0,0,0-13.042,13.07,19.284,19.284,0,0,1-19.28,19.321,12.986,12.986,0,0,0-13.042,13.07,19.284,19.284,0,0,1-19.28,19.321,12.986,12.986,0,0,0-13.042,13.07,19.284,19.284,0,0,1-19.28,19.321,12.986,12.986,0,0,0-13.042,13.07,19.284,19.284,0,0,1-19.28,19.321,12.986,12.986,0,0,0-13.042,13.07,19.284,19.284,0,0,1-19.28,19.321,13.07,13.07,0,1,0,13.042,13.07,19.284,19.284,0,0,1,19.28-19.321,12.986,12.986,0,0,0,13.042-13.07A19.284,19.284,0,0,1,77.687,155.7a12.986,12.986,0,0,0,13.042-13.07,19.284,19.284,0,0,1,19.28-19.321,12.986,12.986,0,0,0,13.042-13.07,19.284,19.284,0,0,1,19.28-19.321,12.986,12.986,0,0,0,13.042-13.07,19.284,19.284,0,0,1,19.28-19.321A12.986,12.986,0,0,0,187.7,45.461a19.284,19.284,0,0,1,19.28-19.321,13.07,13.07,0,0,0,0-26.14Z" transform="translate(323.223 129.563)" fill="#f3f3f3"/>
        <path id="Path_4384" data-name="Path 4384" d="M13.042,0A12.986,12.986,0,0,1,26.085,13.07a19.284,19.284,0,0,0,19.28,19.321,12.986,12.986,0,0,1,13.042,13.07,19.284,19.284,0,0,0,19.28,19.321,13.07,13.07,0,1,1-13.042,13.07,19.284,19.284,0,0,0-19.28-19.321,12.986,12.986,0,0,1-13.042-13.07A19.284,19.284,0,0,0,13.042,26.14,12.986,12.986,0,0,1,0,13.07,12.986,12.986,0,0,1,13.042,0Z" transform="translate(258.579 0)" fill="#f3f3f3"/>
        <ellipse id="Ellipse_552" data-name="Ellipse 552" cx="12.735" cy="12.949" rx="12.735" ry="12.949" transform="translate(323.517 0.028)" fill="#f3f3f3"/>
        <ellipse id="Ellipse_553" data-name="Ellipse 553" cx="12.922" cy="13.137" rx="12.922" ry="13.137" transform="translate(387.939 323.57)" fill="#f3f3f3"/>
        <path id="Path_4385" data-name="Path 4385" d="M26.085,45.461A19.284,19.284,0,0,1,45.365,26.14,12.986,12.986,0,0,0,58.407,13.07a13.042,13.042,0,1,0-26.085,0,19.284,19.284,0,0,1-19.28,19.321,13.07,13.07,0,1,0,13.042,13.07Z" transform="translate(258.579 32.391)" fill="#f3f3f3"/>
        <path id="Path_4386" data-name="Path 4386" d="M13.042,0A12.986,12.986,0,0,1,26.085,13.07a19.284,19.284,0,0,0,19.28,19.321,12.986,12.986,0,0,1,13.042,13.07,19.284,19.284,0,0,0,19.28,19.321,13.07,13.07,0,1,1-13.042,13.07,19.284,19.284,0,0,0-19.28-19.321,12.986,12.986,0,0,1-13.042-13.07A19.284,19.284,0,0,0,13.042,26.14,12.986,12.986,0,0,1,0,13.07,12.986,12.986,0,0,1,13.042,0Z" transform="translate(226.256 32.391)" fill="#f3f3f3"/>
        <path id="Path_4387" data-name="Path 4387" d="M77.687,0A12.986,12.986,0,0,0,64.645,13.07a19.284,19.284,0,0,1-19.28,19.321,12.986,12.986,0,0,0-13.042,13.07,19.284,19.284,0,0,1-19.28,19.321,13.07,13.07,0,1,0,13.042,13.07,19.284,19.284,0,0,1,19.28-19.321,12.986,12.986,0,0,0,13.042-13.07A19.284,19.284,0,0,1,77.687,26.14a13.07,13.07,0,0,0,0-26.14Z" transform="translate(193.934 0)" fill="#f3f3f3"/>
        <path id="Path_4388" data-name="Path 4388" d="M26.085,45.461A19.284,19.284,0,0,1,45.365,26.14,12.986,12.986,0,0,0,58.407,13.07a13.042,13.042,0,1,0-26.085,0,19.284,19.284,0,0,1-19.28,19.321,13.07,13.07,0,1,0,13.042,13.07Z" transform="translate(161.385 0)" fill="#f3f3f3"/>
        <path id="Union_19" data-name="Union 19" d="M32.322,13.07a19.284,19.284,0,0,1-19.28,19.321,13.07,13.07,0,0,0,0,26.14,19.284,19.284,0,0,1,19.28,19.321,13.042,13.042,0,1,0,13.042-13.07,19.321,19.321,0,0,1,0-38.642,13.07,13.07,0,0,0,0-26.14A12.986,12.986,0,0,0,32.322,13.07Z" transform="translate(96.967 0)" fill="#f3f3f3"/>
        <ellipse id="Ellipse_554" data-name="Ellipse 554" cx="13.109" cy="12.949" rx="13.109" ry="12.949" transform="translate(64.331 0.028)" fill="#f3f3f3"/>
        <path id="Path_4391" data-name="Path 4391" d="M32.322,13.07a19.284,19.284,0,0,1-19.28,19.321,13.07,13.07,0,0,0,0,26.14,19.284,19.284,0,0,1,19.28,19.321,13.042,13.042,0,1,0,13.042-13.07,19.321,19.321,0,0,1,0-38.642A12.986,12.986,0,0,0,58.407,13.07a13.042,13.042,0,1,0-26.085,0Z" transform="translate(96.967 129.563)" fill="#f3f3f3"/>
        <path id="Path_4392" data-name="Path 4392" d="M77.687,0A12.986,12.986,0,0,0,64.645,13.07a19.28,19.28,0,1,1-38.56,0A13.042,13.042,0,1,0,0,13.07,12.986,12.986,0,0,0,13.042,26.14a19.321,19.321,0,0,1,0,38.642,13.07,13.07,0,1,0,13.042,13.07,19.284,19.284,0,0,1,19.28-19.321,12.986,12.986,0,0,0,13.042-13.07A19.284,19.284,0,0,1,77.687,26.14,12.986,12.986,0,0,0,90.729,13.07,12.986,12.986,0,0,0,77.687,0Z" transform="translate(161.385 97.172)" fill="#f3f3f3"/>
        <path id="Path_4393" data-name="Path 4393" d="M13.042,90.922a12.986,12.986,0,0,0,13.042-13.07,19.28,19.28,0,1,1,38.56,0,13.042,13.042,0,1,0,13.042-13.07,19.321,19.321,0,0,1,0-38.642A12.986,12.986,0,0,0,90.729,13.07a13.042,13.042,0,1,0-26.085,0,19.284,19.284,0,0,1-19.28,19.321,12.986,12.986,0,0,0-13.042,13.07,19.284,19.284,0,0,1-19.28,19.321,13.07,13.07,0,0,0,0,26.14Z" transform="translate(193.934 259.126)" fill="#f3f3f3"/>
        <g id="Group_1317" data-name="Group 1317" transform="translate(0 64.782)">
          <g id="Group_1316" data-name="Group 1316" transform="translate(0)">
            <path id="Path_4395" data-name="Path 4395" d="M13.042,26.14a19.284,19.284,0,0,1,19.28,19.321,13.042,13.042,0,1,0,26.085,0A19.284,19.284,0,0,1,77.687,26.14,12.986,12.986,0,0,0,90.729,13.07a13.042,13.042,0,1,0-26.085,0,19.28,19.28,0,1,1-38.56,0A13.042,13.042,0,1,0,0,13.07,12.986,12.986,0,0,0,13.042,26.14Z" fill="#f3f3f3"/>
          </g>
        </g>
      </g>
      <g id="Key_Graphic_copy" transform="translate(64.985 129.563)">
        <g id="Group_1319" data-name="Group 1319" transform="translate(0 0)">
          <ellipse id="Ellipse_561" data-name="Ellipse 561" cx="13.042" cy="13.07" rx="13.042" ry="13.07" fill="#f3f3f3"/>
          <ellipse id="Ellipse_562" data-name="Ellipse 562" cx="13.042" cy="13.07" rx="13.042" ry="13.07" transform="translate(0 64.782)" fill="#f3f3f3"/>
        </g>
      </g>
    </g>
  </g>
</svg>
