<svg xmlns="http://www.w3.org/2000/svg" width="15.094" height="15.094" viewBox="0 0 15.094 15.094">
  <path id="search" d="M20.172,21.044,14.658,15.53a4.62,4.62,0,0,1-1.467.849,5.188,5.188,0,0,1-1.782.3,5.22,5.22,0,0,1-3.836-1.572A5.171,5.171,0,0,1,6,11.317,5.171,5.171,0,0,1,7.572,7.522,5.2,5.2,0,0,1,11.388,5.95a5.136,5.136,0,0,1,3.784,1.572,5.365,5.365,0,0,1,1.268,5.534,5.321,5.321,0,0,1-.88,1.572l5.534,5.493Zm-8.784-5.618a3.923,3.923,0,0,0,2.893-1.205,3.975,3.975,0,0,0,1.195-2.9,3.975,3.975,0,0,0-1.195-2.9,3.923,3.923,0,0,0-2.893-1.205,4.116,4.116,0,0,0-4.13,4.109,4.116,4.116,0,0,0,4.13,4.109Z" transform="translate(-6 -5.95)" fill="#4d4d4f"/>
</svg>
