<svg xmlns="http://www.w3.org/2000/svg" xmlns:xlink="http://www.w3.org/1999/xlink" width="376.767" height="311.368" viewBox="0 0 376.767 311.368">
  <defs>
    <linearGradient id="linear-gradient" x1="1" y1="0.676" x2="0" y2="0.678" gradientUnits="objectBoundingBox">
      <stop offset="0" stop-color="#fdb913"/>
      <stop offset="1" stop-color="#d31184"/>
    </linearGradient>
  </defs>
  <path id="Union_7" data-name="Union 7" d="M0-412.583a25.964,25.964,0,0,1,26.076-26.132,38.557,38.557,0,0,0,38.548-38.629,38.557,38.557,0,0,0-38.548-38.63A25.964,25.964,0,0,1,0-542.105a25.963,25.963,0,0,1,26.076-26.131,38.557,38.557,0,0,0,38.548-38.63,25.955,25.955,0,0,1,22.06-25.83,26.735,26.735,0,0,1,4.178-.326,38.556,38.556,0,0,0,38.548-38.629,25.964,25.964,0,0,1,26.076-26.132,26.107,26.107,0,0,1,26.076,26.132,25.964,25.964,0,0,1-26.076,26.132,38.556,38.556,0,0,0-38.548,38.629,38.556,38.556,0,0,0,38.548,38.63,25.963,25.963,0,0,1,26.076,26.132A25.963,25.963,0,0,1,155.487-516,25.963,25.963,0,0,1,129.41-542.13a38.56,38.56,0,0,0-37.752-38.622q-.476.017-.958.017a38.556,38.556,0,0,0-38.548,38.629A38.556,38.556,0,0,0,90.7-503.475a25.964,25.964,0,0,1,26.076,26.132A25.964,25.964,0,0,1,90.7-451.212a38.556,38.556,0,0,0-38.548,38.629,26.108,26.108,0,0,1-26.077,26.132A25.964,25.964,0,0,1,0-412.583Zm130.28-64.463a25.964,25.964,0,0,1,26.077-26.132A38.557,38.557,0,0,0,194.9-541.807a38.557,38.557,0,0,0-38.548-38.63,25.964,25.964,0,0,1-26.077-26.132A25.964,25.964,0,0,1,156.357-632.7,38.556,38.556,0,0,0,194.9-671.329a25.964,25.964,0,0,1,26.076-26.132,26.108,26.108,0,0,1,26.077,26.132A25.964,25.964,0,0,1,220.981-645.2a38.557,38.557,0,0,0-38.548,38.629,38.557,38.557,0,0,0,38.548,38.63,26.036,26.036,0,0,1,15.06,4.731,25.938,25.938,0,0,1,11.2,21.469,38.557,38.557,0,0,0,38.629,38.548,38.557,38.557,0,0,0,38.63-38.548,25.964,25.964,0,0,1,26.132-26.077,25.964,25.964,0,0,1,26.132,26.077,25.964,25.964,0,0,1-26.132,26.076A38.557,38.557,0,0,0,312-477.115a25.964,25.964,0,0,1-26.132,26.077,25.964,25.964,0,0,1-26.131-26.077,38.557,38.557,0,0,0-38.63-38.548c-.232,0-.463,0-.694-.009a38.559,38.559,0,0,0-37.985,38.625,26.108,26.108,0,0,1-26.076,26.132A25.964,25.964,0,0,1,130.28-477.046ZM64.7-542.117A26.13,26.13,0,0,1,90.83-568.247a26.129,26.129,0,0,1,26.129,26.129A26.129,26.129,0,0,1,90.83-515.988,26.13,26.13,0,0,1,64.7-542.117Zm130.28-64.463A26.13,26.13,0,0,1,221.11-632.71a26.13,26.13,0,0,1,26.129,26.129,26.13,26.13,0,0,1-26.129,26.129A26.13,26.13,0,0,1,194.98-606.581ZM64.7-671.689A26.13,26.13,0,0,1,90.83-697.819a26.129,26.129,0,0,1,26.129,26.129A26.129,26.129,0,0,1,90.83-645.56,26.13,26.13,0,0,1,64.7-671.689Z" transform="translate(376.767 -386.451) rotate(180)" fill="url(#linear-gradient)"/>
</svg>
